<?xml version="1.0" standalone="no"?>
<!DOCTYPE svg PUBLIC "-//W3C//DTD SVG 1.1//EN" "http://www.w3.org/Graphics/SVG/1.1/DTD/svg11.dtd" >
<svg xmlns="http://www.w3.org/2000/svg">
<metadata></metadata>
<defs>
<font id="betaregular" horiz-adv-x="1456" >
<font-face units-per-em="2048" ascent="1804" descent="-244" />
<missing-glyph horiz-adv-x="819" />
<glyph unicode="&#xfb01;" d="M100 88l115 164q-29 74 -29 151v703q0 84 32 157.5t86 128t128 86t158 31.5h276q104 0 195 -51l80 115l215 -152l-115 -164q29 -74 29 -151v-703q0 -84 -32 -157.5t-87 -128t-128 -86t-157 -31.5h-276q-53 0 -101.5 13.5t-93.5 35.5l-78 -112zM461 602l442 631 q-8 2 -24 2h-304q-47 0 -80.5 -34t-33.5 -81v-518zM555 276q6 -2 20 -2h304q47 0 80.5 34t33.5 81v514z" />
<glyph unicode="&#xfb02;" d="M186 403v703q0 84 32 157.5t86 128t128 86t158 31.5h276h2l41 111h285q-20 -55 -37 -100q-14 -39 -25.5 -70t-13.5 -31q70 -55 111 -136t41 -177v-703q0 -84 -32 -157.5t-87 -128t-128 -86t-157 -31.5h-276l-41 -111h-285l74 199q-70 55 -111 137t-41 178zM461 418 l305 817h-191q-47 0 -80.5 -34t-33.5 -81v-702zM692 274h187q47 0 80.5 34t33.5 81v692z" />
<glyph horiz-adv-x="2048" />
<glyph horiz-adv-x="2048" />
<glyph unicode="&#xd;" horiz-adv-x="1208" />
<glyph unicode=" "  horiz-adv-x="819" />
<glyph unicode="&#x09;" horiz-adv-x="819" />
<glyph unicode="&#xa0;" horiz-adv-x="819" />
<glyph unicode="!" horiz-adv-x="686" d="M164 813v629q0 27 19.5 47t47.5 20h226q29 0 47 -20.5t18 -46.5v-629l-57 -309q-12 -68 -72 -68h-104q-55 0 -68 68zM186 68v176q0 27 19.5 47t48.5 20h178q29 0 47.5 -20.5t18.5 -46.5v-176q0 -27 -19.5 -47.5t-48.5 -20.5h-176q-29 0 -48.5 20.5t-19.5 47.5z" />
<glyph unicode="&#x22;" horiz-adv-x="929" d="M123 1432q-4 31 21.5 54t56.5 23h143q33 0 56.5 -23.5t19.5 -53.5l-37 -445q-12 -78 -82 -78h-63q-33 0 -52.5 21.5t-25.5 56.5zM510 1432q-4 31 21.5 54t56.5 23h143q33 0 56.5 -23.5t19.5 -53.5l-37 -445q-12 -78 -82 -78h-63q-33 0 -52.5 21.5t-25.5 56.5z" />
<glyph unicode="#" horiz-adv-x="1327" d="M84 590l47 213h201l51 241h-203l47 213h201l53 252h203l-53 -252h211l51 252h203l-54 -252h201l-47 -213h-199l-51 -241h201l-47 -213h-199l-53 -252h-203l53 252h-211l-51 -252h-203l54 252h-203zM535 803h208l52 241h-209z" />
<glyph unicode="$" horiz-adv-x="1409" d="M205 371l248 65q2 -6 4 -14q2 -6 4 -13.5t2 -13.5q18 -49 41.5 -74.5t70.5 -25.5h295q43 0 75 31.5t32 76.5v74q0 35 -18.5 60.5t-49.5 35.5l-456 125q-55 14 -99.5 47t-77 79t-50 101.5t-17.5 114.5v68q0 80 27.5 147.5t76.5 116.5t117 77t148 28h22v170h246v-170h16 q74 -2 139.5 -28t116.5 -71t85 -105.5t42 -131.5l-248 -68q-2 6 -4 14q-2 6 -3 13.5t-5 11.5q-18 51 -41.5 76.5t-66.5 25.5h-295q-47 0 -79 -31.5t-32 -78.5v-51q0 -104 109 -129q25 -4 87 -20.5t128 -33.5q78 -20 166 -43q59 -14 109 -46.5t87 -79t58.5 -102.5t21.5 -122 v-53q0 -82 -28.5 -153.5t-80 -125t-121 -84t-151.5 -30.5h-10v-172h-248v172h-8q-74 -2 -140.5 23.5t-117.5 71.5t-85 109.5t-42 135.5z" />
<glyph unicode="%" horiz-adv-x="1427" d="M123 995v217q0 35 25.5 58.5t60.5 23.5h217q35 0 60.5 -23.5t25.5 -58.5v-217q0 -35 -25.5 -58.5t-60.5 -23.5h-217q-35 0 -60.5 24t-25.5 58zM225 -20l766 1644l211 -98l-766 -1643zM915 322v217q0 35 26 58.5t60 23.5h218q35 0 60.5 -24t25.5 -58v-217q0 -35 -26 -58.5 t-60 -23.5h-218q-35 0 -60.5 23.5t-25.5 58.5z" />
<glyph unicode="&#x26;" horiz-adv-x="1492" d="M176 410v55q0 111 49 188.5t135 130.5l-8 9q-47 51 -74.5 117.5t-27.5 142.5v71q0 84 28.5 155t80 122t122 79.5t154.5 28.5h72q84 0 156.5 -26.5t125.5 -72.5t85 -110.5t32 -142.5v-86q0 -119 -68.5 -197.5t-169.5 -130.5l211 -163q20 25 37 47t29 39q14 20 26 34 l218 -151l-99 -133l131 -103l-176 -207l-117 91q-45 -57 -88 -95.5t-90 -61t-101 -31.5t-124 -9h-152q-86 0 -158.5 31.5t-125.5 87t-83 130.5t-30 161zM446 389q0 -47 33 -81t80 -34h180q25 0 42.5 1t36 8.5t41 25t54.5 49.5l2 2l-319 244q-10 -4 -23 -10q-27 -10 -55 -29 q-35 -18 -53.5 -38.5t-18.5 -61.5v-76zM524 1092q0 -37 15.5 -71t44.5 -56l55 -43l82 39q47 23 78.5 54.5t31.5 84.5v20q0 55 -31.5 85t-78.5 30h-82q-47 0 -81 -34t-34 -81v-28z" />
<glyph unicode="'" horiz-adv-x="542" d="M123 1432q-4 31 21.5 54t56.5 23h143q33 0 56.5 -23.5t19.5 -53.5l-37 -445q-12 -78 -82 -78h-63q-33 0 -52.5 21.5t-25.5 56.5z" />
<glyph unicode="(" horiz-adv-x="782" d="M227 113v1202q0 78 27 145.5t75 121.5t112.5 89t138.5 45l69 -258q-6 -2 -14 -4q-12 -2 -27 -10q-53 -18 -79.5 -43t-26.5 -72v-1229q0 -47 26.5 -72.5t79.5 -43.5l13.5 -4.5l13.5 -4.5q8 -2 14 -4l-67 -258q-76 8 -140.5 43t-111.5 89.5t-75 123t-28 144.5z" />
<glyph unicode=")" horiz-adv-x="782" d="M133 -29q6 2 14 4l13.5 4.5l13.5 4.5q53 18 80 43.5t27 72.5v1229q0 47 -27 71.5t-80 43.5q-4 4 -12 6t-15 4q-8 2 -14 4l70 258q74 -10 138.5 -45t112.5 -89t74.5 -121.5t26.5 -145.5v-1202q0 -76 -26.5 -144.5t-74.5 -123t-113 -89.5t-140 -43z" />
<glyph unicode="*" horiz-adv-x="1120" d="M123 1151l33 102q6 20 25.5 30.5t37.5 2.5l260 -110l-22 282q-2 20 13 35.5t36 15.5h108q20 0 36 -15t14 -36l-25 -280l260 108q18 8 37.5 -2t26.5 -31l32 -102q6 -18 -3 -37.5t-29 -23.5l-273 -64l182 -213q14 -16 10.5 -37.5t-20.5 -34.5l-88 -63q-16 -10 -37.5 -7 t-31.5 19l-146 242l-145 -242q-10 -16 -32 -19t-38 9l-88 63q-16 12 -19.5 33t9.5 37l182 211l-272 63q-20 4 -29.5 25t-3.5 39z" />
<glyph unicode="+" horiz-adv-x="1165" d="M164 653v201h319v320h201v-320h317v-201h-317v-317h-201v317h-319z" />
<glyph unicode="," horiz-adv-x="835" d="M123 -201l225 535q10 23 37 33t51 -2l160 -78q25 -12 33 -39t-4 -49l-285 -506q-39 -53 -92 -29l-37 19q-16 8 -31.5 16t-25.5 14q-47 23 -31 86z" />
<glyph unicode="-" horiz-adv-x="1011" d="M145 612v242h721v-242h-721z" />
<glyph unicode="." horiz-adv-x="780" d="M164 82v217q0 35 25.5 58.5t60.5 23.5h217q35 0 60.5 -23.5t25.5 -58.5v-217q0 -35 -25.5 -58.5t-60.5 -23.5h-217q-35 0 -60.5 23.5t-25.5 58.5z" />
<glyph unicode="/" horiz-adv-x="1169" d="M123 -88l825 1769l180 -84l-825 -1767z" />
<glyph unicode="0" horiz-adv-x="1538" d="M227 403v703q0 84 32 157.5t86 128t128 86t158 31.5h276q84 0 157 -31.5t128 -86t87 -128t32 -157.5v-703q0 -84 -32 -157.5t-87 -128t-128 -86t-157 -31.5h-276q-84 0 -158 31.5t-128 86t-86 128t-32 157.5zM502 389q0 -47 33.5 -81t80.5 -34h304q47 0 80.5 34t33.5 81 v731q0 47 -33.5 81t-80.5 34h-304q-47 0 -80.5 -34t-33.5 -81v-731z" />
<glyph unicode="1" horiz-adv-x="1157" d="M227 0v260h213v989h-213v260h490v-1249h213v-260h-703z" />
<glyph unicode="2" horiz-adv-x="1538" d="M227 0v266q0 49 7.5 98.5t27 96.5t53 89t86.5 73q66 39 98.5 59t53 32.5t39 24t55.5 33t101.5 58t177.5 102.5q53 31 81.5 68.5t28.5 91.5v28q0 47 -33.5 81t-80.5 34h-301q-47 0 -71 -26.5t-44 -80.5q-2 -4 -3 -11t-5 -13q-4 -8 -6 -14l-265 71l33 90q18 53 53 100.5 t83 82t108.5 55t130.5 20.5h291q84 0 154.5 -28.5t121.5 -79.5t80 -122t29 -155v-71q0 -61 -20.5 -113.5t-55.5 -96.5t-81 -80t-97 -67l-422 -247q-43 -25 -67.5 -42.5t-37 -36t-14.5 -40t-2 -56.5h797v-274h-1084z" />
<glyph unicode="3" horiz-adv-x="1538" d="M227 1157q10 74 44 138.5t88.5 112.5t123 74.5t146.5 26.5h278q84 0 157 -31.5t128 -86t87 -128t32 -157.5v-72q0 -76 -27 -143.5t-74 -120.5q47 -53 74 -121.5t27 -144.5v-101q0 -84 -32 -157.5t-87 -128t-128 -86t-157 -31.5h-276q-76 0 -144.5 27.5t-123 75t-89 112 t-45.5 139.5l258 68q2 -6 5 -14q2 -6 5 -13.5t5 -13.5q18 -53 42.5 -80t71.5 -27h304q47 0 80.5 34t33.5 81v129q0 47 -33.5 80t-80.5 33h-265v276h265q47 0 80.5 34t33.5 81v98q0 47 -33.5 81t-80.5 34h-306q-47 0 -72.5 -26.5t-43.5 -80.5q-2 -4 -4 -12t-5 -14 q-2 -8 -4 -15z" />
<glyph unicode="4" horiz-adv-x="1538" d="M227 360v240l656 909h262v-878h166v-271h-166v-360h-277v360h-641zM563 631h305v432z" />
<glyph unicode="5" horiz-adv-x="1538" d="M227 289l260 84q18 -47 42 -73t71 -26h320q47 0 80.5 34t33.5 81v201q0 47 -33.5 79.5t-80.5 32.5h-322q-43 0 -70.5 -21.5t-27.5 -64.5l-273 89l176 804h832v-274h-623l-55 -260q14 4 26.5 4h26.5h297q84 0 157 -32t128 -86t87 -128t32 -158v-172q0 -84 -32 -157.5 t-87 -128t-128 -86t-157 -31.5h-293q-68 0 -130 21.5t-113.5 60.5t-88 91t-55.5 116z" />
<glyph unicode="6" horiz-adv-x="1538" d="M227 403v109v594q0 84 32 157.5t86 128t128 86t158 31.5h276q74 0 140.5 -24.5t119 -68.5t88 -104.5t48.5 -129.5l-254 -90q-4 6 -6.5 16t-6.5 20q-18 53 -43.5 80t-72.5 27h-304q-47 0 -80.5 -34t-33.5 -81v-190q31 10 62.5 15t66.5 5h276q84 0 157 -31.5t128 -86 t87 -128t32 -157.5v-144q0 -84 -32 -157.5t-87 -128t-128 -86t-157 -31.5h-276q-84 0 -158 31.5t-128 86t-86 128t-32 157.5zM504 389q0 -47 32.5 -81t79.5 -34h304q47 0 80.5 34t33.5 81v172q0 47 -33.5 81t-80.5 34h-304q-47 0 -79.5 -34t-32.5 -81v-172z" />
<glyph unicode="7" horiz-adv-x="1538" d="M227 1235v274h1084v-260l-584 -1249h-299l576 1235h-777z" />
<glyph unicode="8" horiz-adv-x="1538" d="M227 403v101q0 78 27 145.5t74 120.5q-47 53 -74 120.5t-27 143.5v72q0 84 32 157.5t86 128t128 86t158 31.5h276q84 0 157 -31.5t128 -86t87 -128t32 -157.5v-72q0 -76 -27 -143.5t-74 -120.5q47 -53 74 -121.5t27 -144.5v-101q0 -84 -32 -157.5t-87 -128t-128 -86 t-157 -31.5h-276q-84 0 -158 31.5t-128 86t-86 128t-32 157.5zM502 1022q0 -47 33.5 -81t80.5 -34h304q47 0 80.5 34t33.5 81v98q0 47 -33.5 81t-80.5 34h-304q-47 0 -80.5 -34t-33.5 -81v-98zM504 389q0 -47 32.5 -81t79.5 -34h304q47 0 80.5 34t33.5 81v129q0 47 -33.5 80 t-80.5 33h-304q-47 0 -79.5 -33t-32.5 -80v-129z" />
<glyph unicode="9" horiz-adv-x="1538" d="M227 997v109q0 84 32 157.5t86 128t128 86t158 31.5h276q84 0 157 -31.5t128 -86t87 -128t32 -157.5v-109v-594q0 -84 -32 -157.5t-87 -128t-128 -86t-157 -31.5h-276q-74 0 -140.5 24.5t-119 68.5t-88 104.5t-50.5 130.5l256 90l5.5 -16.5t7.5 -20.5q18 -53 42.5 -80 t71.5 -27h304q47 0 80.5 34t33.5 81v225q-31 -10 -62.5 -15t-64.5 -5h-276q-84 0 -158 31.5t-128 86t-86 128t-32 157.5zM502 983q0 -47 33.5 -81t80.5 -34h304q47 0 80.5 34t33.5 81v137q0 47 -33.5 81t-80.5 34h-304q-47 0 -80.5 -34t-33.5 -81v-137z" />
<glyph unicode=":" horiz-adv-x="778" d="M164 82v217q0 35 25.5 58.5t60.5 23.5h217q35 0 60.5 -23.5t25.5 -58.5v-217q0 -35 -25.5 -58.5t-60.5 -23.5h-217q-35 0 -60.5 23.5t-25.5 58.5zM164 756v217q0 35 25.5 58.5t60.5 23.5h217q35 0 60.5 -23.5t25.5 -58.5v-217q0 -35 -25.5 -58.5t-60.5 -23.5h-217 q-35 0 -60.5 23.5t-25.5 58.5z" />
<glyph unicode=";" horiz-adv-x="882" d="M123 -201l225 535q10 23 37 33t51 -2l160 -78q25 -12 33 -39t-4 -49l-285 -506q-39 -53 -92 -29l-37 19q-16 8 -31.5 16t-25.5 14q-47 23 -31 86zM289 756v217q0 35 25.5 58.5t60.5 23.5h217q35 0 60.5 -23.5t25.5 -58.5v-217q0 -35 -25.5 -58.5t-60.5 -23.5h-217 q-35 0 -60.5 23.5t-25.5 58.5z" />
<glyph unicode="&#x3c;" horiz-adv-x="1077" d="M163.5 751.5q0.5 34.5 22.5 61.5l527 487q68 47 114 0q12 -10 22.5 -20t18.5 -18l15 -15q27 -25 32 -56.5t-28 -66.5l-340 -370l330 -361q31 -35 26.5 -66.5t-31.5 -56.5l-14 -14q-8 -8 -18.5 -17.5t-22.5 -21.5q-51 -47 -117 0l-514 477q-23 23 -22.5 57.5z" />
<glyph unicode="=" horiz-adv-x="1171" d="M164 467v201h844v-201h-844zM164 838v200h844v-200h-844z" />
<glyph unicode="&#x3e;" horiz-adv-x="1077" d="M164 1191q4 32 31 56q8 6 16 15q8 8 17.5 18t21.5 20q51 47 115 0l526 -487q23 -27 22.5 -61.5t-22.5 -57.5l-512 -477q-70 -47 -119 0l-39 39q-8 8 -16 14q-27 25 -31 56.5t29 66.5l329 361l-339 370q-33 35 -29 67z" />
<glyph unicode="?" horiz-adv-x="1286" d="M82 1157q10 74 44 138.5t88 112.5t123 74.5t144 26.5h277q84 0 154.5 -28.5t121.5 -79.5t80 -122t29 -155v-71q0 -98 -50.5 -168t-127.5 -129l-197 -150q-29 -23 -48.5 -48.5t-19.5 -59.5v-27q0 -35 -34 -35h-199q-14 0 -24.5 8.5t-10.5 26.5v27q0 109 54.5 185.5 t142.5 145.5l129 103q53 41 81.5 73.5t28.5 86.5v28q0 47 -33.5 81t-80.5 34h-273q-92 0 -129 -107q-2 -4 -4 -12t-4 -14q-2 -8 -4 -15zM412 68v176q0 27 19.5 47t47.5 20h176q29 0 48.5 -20.5t19.5 -46.5v-176q0 -27 -18.5 -47.5t-47.5 -20.5h-178q-29 0 -48 20.5t-19 47.5 z" />
<glyph unicode="@" horiz-adv-x="1724" d="M123 520v471q0 104 42 198.5t112.5 165t166 112.5t201.5 42h438q104 0 198.5 -42t165.5 -112.5t113 -164.5t42 -199v-338q0 -94 -50.5 -157.5t-124 -90t-156.5 -13t-151 68.5q-35 -33 -81 -51.5t-99 -18.5h-182q-55 0 -103.5 20.5t-84 57.5t-57 85t-21.5 103v193 q0 55 21.5 103t57 85t83.5 57.5t104 20.5h448v-461q0 -43 31 -63.5t66.5 -20.5t66.5 20.5t31 63.5v357q0 63 -23.5 117.5t-63.5 95.5t-94.5 64.5t-117.5 23.5q-106 2 -203 2h-278q-63 0 -117.5 -23.5t-95.5 -64.5t-65 -96.5t-24 -118.5v-514q0 -63 24 -117.5t65 -95.5 t95 -64.5t118 -23.5h483q55 0 104 18t88 51l131 -131q-70 -63 -158.5 -99t-189.5 -36h-434q-106 0 -201.5 42t-166 112.5t-112.5 165t-42 200.5zM672 647q0 -31 22.5 -53.5t53.5 -22.5h200q31 0 53.5 22.5t22.5 53.5v289h-276q-31 0 -53.5 -22.5t-22.5 -53.5v-213z" />
<glyph unicode="A" horiz-adv-x="1327" d="M123 0q0 86 1 131t3 69.5t7 39t11 36.5l387 1233h263q96 -301 176 -553q35 -106 68.5 -214.5t62 -200.5t50.5 -163t30 -102q6 -23 10 -37t7 -39.5t4 -70.5t1 -129h-264v70q0 29 -1 54.5t-5 35.5q-8 29 -15.5 50t-11.5 38q-6 18 -8 31h-475q-2 -12 -8 -29 q-4 -14 -9.5 -35.5t-13.5 -52.5q-4 -10 -5 -37t-1 -55v-70h-264zM506 549h315l-157 504z" />
<glyph unicode="B" horiz-adv-x="1476" d="M227 0v1509h680q84 0 157 -31.5t128 -86t87 -128t32 -157.5v-68q0 -76 -27 -144.5t-74 -121.5q47 -53 74 -120.5t27 -143.5v-105q0 -84 -32 -157.5t-87 -128t-128 -86t-157 -31.5h-680zM502 274h418q47 0 80.5 34t33.5 81v131q0 47 -33.5 81t-80.5 34h-418v-361zM502 909 h418q47 0 80.5 34t33.5 83v94q0 47 -33.5 81t-80.5 34h-418v-326z" />
<glyph unicode="C" horiz-adv-x="1382" d="M186 403v703q0 84 32 157.5t86 128t128 86t158 31.5h278q78 0 145.5 -26.5t122 -74.5t89.5 -112.5t45 -138.5l-258 -70q-2 6 -4 15q-2 6 -4.5 14t-6.5 12q-18 53 -42.5 80t-71.5 27h-308q-47 0 -80.5 -34t-33.5 -81v-731q0 -47 33.5 -81t80.5 -34h304q47 0 72.5 27 t43.5 80q2 6 4 13t5 14q2 8 4 14l258 -68q-8 -76 -43 -140t-89.5 -111.5t-122 -75t-145.5 -27.5h-276q-84 0 -158 31.5t-128 86t-86 128t-32 157.5z" />
<glyph unicode="D" horiz-adv-x="1497" d="M227 0v1509h680q84 0 157 -31.5t128 -86t87 -128t32 -157.5v-703q0 -84 -32 -157.5t-87 -128t-128 -86t-157 -31.5h-680zM502 274h418q47 0 80.5 34t33.5 81v731q0 47 -33.5 81t-80.5 34h-418v-961z" />
<glyph unicode="E" horiz-adv-x="1464" d="M227 0v1509h1084v-274h-809v-324h618v-276h-618v-361h809v-274h-1084z" />
<glyph unicode="F" horiz-adv-x="1382" d="M227 0v1509h1084v-274h-809v-324h618v-276h-618v-635h-275z" />
<glyph unicode="G" d="M186 403v703q0 84 32 157.5t86 128t128 86t158 31.5h278q78 0 145.5 -26.5t122 -74.5t89.5 -112.5t45 -138.5l-258 -70q-2 6 -4 15q-2 6 -4.5 14t-6.5 12q-18 53 -42.5 80t-71.5 27h-308q-47 0 -80.5 -34t-33.5 -81v-731q0 -47 33.5 -81t80.5 -34h306q47 0 79.5 34 t32.5 81v244h-207v260h484v-490q0 -84 -32 -157.5t-87 -128t-128 -86t-157 -31.5h-276q-84 0 -158 31.5t-128 86t-86 128t-32 157.5z" />
<glyph unicode="H" horiz-adv-x="1538" d="M227 0v1509h275v-600h532v600h277v-1509h-277v635h-532v-635h-275z" />
<glyph unicode="I" horiz-adv-x="1075" d="M186 0v274h213v961h-213v274h703v-274h-213v-961h213v-274h-703z" />
<glyph unicode="J" horiz-adv-x="1337" d="M72 354l258 68q2 -6 4 -14q2 -6 4 -13.5t4 -13.5q18 -53 43 -80t72 -27h305q47 0 79.5 34t32.5 81v846h-403v274h680v-1106q0 -84 -32 -157.5t-86 -128t-128 -86t-157 -31.5h-277q-76 0 -144.5 27.5t-122.5 75t-88 112t-44 139.5z" />
<glyph unicode="K" horiz-adv-x="1429" d="M227 0v1509h275v-645l475 645h313l-418 -598q90 -145 170 -270q35 -53 69 -106.5t62.5 -101.5t52 -85t36.5 -57q16 -27 23 -73t10 -93q2 -35 2 -64v-19q-1 -36 -1 -42h-264q3 22 3 44q0 11 -1 22q-2 29 -6 58.5t-14 49.5q-4 8 -19.5 33.5t-38 60.5t-50 78t-56.5 86 q-68 100 -148 223l-200 -280v-375h-275z" />
<glyph unicode="L" horiz-adv-x="1382" d="M227 0v1509h275v-1235h809v-274h-1084z" />
<glyph unicode="M" horiz-adv-x="1742" d="M227 0v1509h269l374 -882l375 882h271v-1509h-275v788l-278 -575h-181l-278 575v-788h-277z" />
<glyph unicode="N" horiz-adv-x="1538" d="M227 0v1509h267l540 -946v946h277v-1509h-262l-547 971v-971h-275z" />
<glyph unicode="O" d="M186 403v703q0 84 32 157.5t86 128t128 86t158 31.5h276q84 0 157 -31.5t128 -86t87 -128t32 -157.5v-703q0 -84 -32 -157.5t-87 -128t-128 -86t-157 -31.5h-276q-84 0 -158 31.5t-128 86t-86 128t-32 157.5zM461 389q0 -47 33.5 -81t80.5 -34h304q47 0 80.5 34t33.5 81 v731q0 47 -33.5 81t-80.5 34h-304q-47 0 -80.5 -34t-33.5 -81v-731z" />
<glyph unicode="P" horiz-adv-x="1392" d="M227 0v1509h680q84 0 157 -31.5t128 -86t87 -128t32 -157.5v-86q0 -82 -32 -155.5t-87 -129t-128 -87.5t-157 -32h-405v-616h-275zM502 893h418q47 0 80.5 34t33.5 81v112q0 47 -33.5 81t-80.5 34h-418v-342z" />
<glyph unicode="Q" horiz-adv-x="1476" d="M197 274v961q0 57 21.5 107.5t58 87t87 58t107.5 21.5h533q57 0 107 -21.5t88 -58t59.5 -87t21.5 -107.5v-961q0 -57 -21.5 -107t-59.5 -87t-88 -58.5t-107 -21.5h-533q-57 0 -107.5 21.5t-87 58.5t-58 87t-21.5 107zM471 338q0 -27 18.5 -45.5t45.5 -18.5h294l-167 168 l174 174l168 -165v723q0 25 -17.5 43t-44.5 18h-407q-27 0 -45.5 -18.5t-18.5 -42.5v-836z" />
<glyph unicode="R" horiz-adv-x="1476" d="M227 0v1509h680q84 0 157 -31.5t128 -86t87 -128t32 -157.5v-86q0 -68 -21.5 -129.5t-57.5 -110.5t-83 -82.5t-100 -50.5l92 -147q39 -61 77.5 -125t63.5 -105q14 -23 19.5 -65.5t7.5 -89.5q2 -53 2 -115h-269q1 16 1 33t-1 33q-2 29 -7 58.5t-15 49.5q-4 8 -18.5 31.5 t-35 56.5t-46 72t-50.5 78q-59 92 -131 204h-237v-616h-275zM502 893h418q47 0 80.5 34t33.5 81v112q0 47 -33.5 81t-80.5 34h-418v-342z" />
<glyph unicode="S" horiz-adv-x="1388" d="M166 354l258 68q2 -6 4 -14q2 -6 4 -13.5t4 -13.5q18 -53 44 -80t73 -27h307q47 0 80 34t33 81v76q0 35 -19.5 62.5t-52.5 37.5l-477 131q-55 16 -102.5 50t-81 81t-52 105.5t-18.5 120.5v71q0 84 28.5 155t80 122t122 79.5t154.5 28.5h297q78 0 145.5 -26.5t122 -74.5 t89 -112.5t42.5 -138.5l-258 -70q-2 6 -4 15q-2 6 -3 14t-5 12q-18 53 -43 80t-72 27h-307q-47 0 -81 -34t-34 -81v-53q0 -106 113 -135q27 -6 91.5 -22.5t131.5 -32.5q80 -20 174 -46q61 -14 114.5 -48.5t92.5 -82t60.5 -108t21.5 -127.5v-55q0 -86 -29.5 -161t-83 -130.5 t-126 -87t-158.5 -31.5h-279q-78 0 -146.5 27.5t-122.5 75t-88 112t-44 139.5z" />
<glyph unicode="T" horiz-adv-x="1251" d="M84 1235v274h1083v-274h-403v-1235h-277v1235h-403z" />
<glyph unicode="U" d="M186 403v1106h275v-1120q0 -47 33.5 -81t80.5 -34h304q47 0 80.5 34t33.5 81v1120h277v-1106q0 -84 -32 -157.5t-87 -128t-128 -86t-157 -31.5h-276q-84 0 -158 31.5t-128 86t-86 128t-32 157.5z" />
<glyph unicode="V" horiz-adv-x="1204" d="M61 1509h265v-84q0 -35 2 -65.5t6 -40.5q4 -14 18.5 -59.5t34 -112t43 -145t47.5 -160.5q55 -190 125 -424q70 231 127 420q25 80 48.5 159.5t44 146t33.5 113t17 60.5q4 10 5.5 41t1.5 65v86h264q0 -86 -1 -131t-3 -69.5t-7.5 -39t-11.5 -36.5l-387 -1233h-262 q-96 301 -176 553q-33 109 -66.5 216.5t-63.5 199.5t-50.5 162.5t-30.5 101.5q-6 23 -10 37t-7.5 39.5t-4.5 70.5t-1 129z" />
<glyph unicode="W" horiz-adv-x="1492" d="M125 1507h264q2 -37 4 -69q2 -29 4 -54.5t2 -37.5l115 -773l170 705h123l172 -705l115 773q4 10 5 36.5t3 55.5q2 33 2 69h264q0 -78 -1 -117.5t-2 -59t-2 -28t-3 -24.5l-205 -1278h-250l-160 627l-155 -627h-252l-197 1233q-2 25 -5 39t-6 37.5t-4 67.5t-1 130z" />
<glyph unicode="X" horiz-adv-x="1415" d="M166 0q0 86 1 136t3 79t6 42t12 26l344 473l-346 471q-8 16 -12 30.5t-6 42t-2 76.5v133h264v-69q0 -29 1 -54.5t5 -35.5q10 -27 52 -90.5t92 -129.5q57 -78 127 -165q68 86 124 161q25 33 49.5 66t44 62.5t34 54t20.5 39.5q4 10 5 35.5t1 54.5v71h264v-135t-2 -77.5 t-6 -43t-14 -30.5l-344 -467q82 -109 149 -205q29 -41 58.5 -82t56.5 -77t47 -63.5t31 -43.5q10 -16 14 -30.5t7 -43.5t3 -78v-133h-264v74q0 29 -2 56.5t-8 39.5q-16 37 -59.5 100.5t-90.5 124.5q-53 72 -118 150q-70 -86 -127 -162q-49 -66 -92.5 -128t-51.5 -93 q-4 -10 -5 -37t-1 -55v-70h-264z" />
<glyph unicode="Y" horiz-adv-x="1290" d="M104 1378v131h265v-84q0 -33 2 -63.5t6 -40.5q6 -12 21.5 -41t36 -65.5t43 -79.5t46.5 -86l121 -220q66 115 119 213q23 43 46.5 85t43.5 80t35.5 68t21.5 46q6 6 8.5 35.5t2.5 64.5v88h264q0 -86 -1 -135t-3 -76.5t-6.5 -40t-12.5 -24.5l-379 -643v-590h-276v590 l-381 643q-8 18 -13 32.5t-7.5 40t-2.5 72.5z" />
<glyph unicode="Z" d="M186 0v264l746 971h-746v274h1084v-266l-731 -969h731v-274h-1084z" />
<glyph unicode="[" horiz-adv-x="831" d="M227 -315v2058h521v-234h-285v-1591h285v-233h-521z" />
<glyph unicode="\" horiz-adv-x="1179" d="M51 1597l178 84l828 -1769l-180 -82z" />
<glyph unicode="]" horiz-adv-x="831" d="M84 -82h285v1591h-285v234h520v-2058h-520v233z" />
<glyph unicode="^" horiz-adv-x="1007" d="M197 1661q-35 35 0 86l276 303q16 16 42 16t44 -16l277 -303q35 -51 0 -86q-8 -10 -16.5 -16.5t-12.5 -12.5q-6 -8 -10 -12q-18 -18 -41 -21.5t-49 19.5l-191 168l-190 -168q-27 -23 -49.5 -19.5t-40.5 21.5q-4 4 -11 12q-4 6 -11 12.5t-17 16.5z" />
<glyph unicode="_" horiz-adv-x="1316" d="M63 0v180h1190v-180h-1190z" />
<glyph unicode="`" horiz-adv-x="870" d="M112 1916q-1 26 17 44l90 90q18 18 45 17t41 -17l256 -303q35 -51 0 -86q-8 -10 -16 -16.5t-13 -12.5q-6 -8 -10 -12q-37 -37 -90 -2l-301 256q-18 16 -19 42z" />
<glyph unicode="a" horiz-adv-x="1329" d="M102 0l430 1509h263l432 -1509h-277l-67 248h-441l-63 -248h-277zM506 518h317l-159 506z" />
<glyph unicode="b" horiz-adv-x="1476" d="M227 0v1509h680q84 0 157 -31.5t128 -86t87 -128t32 -157.5v-68q0 -76 -27 -144.5t-74 -121.5q47 -53 74 -120.5t27 -143.5v-105q0 -84 -32 -157.5t-87 -128t-128 -86t-157 -31.5h-680zM502 274h418q47 0 80.5 34t33.5 81v131q0 47 -33.5 81t-80.5 34h-418v-361zM502 909 h418q47 0 80.5 34t33.5 83v94q0 47 -33.5 81t-80.5 34h-418v-326z" />
<glyph unicode="c" horiz-adv-x="1382" d="M186 403v703q0 84 32 157.5t86 128t128 86t158 31.5h278q78 0 145.5 -26.5t122 -74.5t89.5 -112.5t45 -138.5l-258 -70q-2 6 -4 15q-2 6 -4.5 14t-6.5 12q-18 53 -42.5 80t-71.5 27h-308q-47 0 -80.5 -34t-33.5 -81v-731q0 -47 33.5 -81t80.5 -34h304q47 0 72.5 27 t43.5 80q2 6 4 13t5 14q2 8 4 14l258 -68q-8 -76 -43 -140t-89.5 -111.5t-122 -75t-145.5 -27.5h-276q-84 0 -158 31.5t-128 86t-86 128t-32 157.5z" />
<glyph unicode="d" horiz-adv-x="1497" d="M227 0v1509h680q84 0 157 -31.5t128 -86t87 -128t32 -157.5v-703q0 -84 -32 -157.5t-87 -128t-128 -86t-157 -31.5h-680zM502 274h418q47 0 80.5 34t33.5 81v731q0 47 -33.5 81t-80.5 34h-418v-961z" />
<glyph unicode="e" horiz-adv-x="1464" d="M227 0v1509h1084v-274h-809v-324h618v-276h-618v-361h809v-274h-1084z" />
<glyph unicode="f" horiz-adv-x="1382" d="M227 0v1509h1084v-274h-809v-324h618v-276h-618v-635h-275z" />
<glyph unicode="g" d="M186 403v703q0 84 32 157.5t86 128t128 86t158 31.5h278q78 0 145.5 -26.5t122 -74.5t89.5 -112.5t45 -138.5l-258 -70q-2 6 -4 15q-2 6 -4.5 14t-6.5 12q-18 53 -42.5 80t-71.5 27h-308q-47 0 -80.5 -34t-33.5 -81v-731q0 -47 33.5 -81t80.5 -34h306q47 0 79.5 34 t32.5 81v193h-207v260h484v-439q0 -84 -32 -157.5t-87 -128t-128 -86t-157 -31.5h-276q-84 0 -158 31.5t-128 86t-86 128t-32 157.5z" />
<glyph unicode="h" horiz-adv-x="1538" d="M227 0v1509h275v-600h532v600h277v-1509h-277v635h-532v-635h-275z" />
<glyph unicode="i" horiz-adv-x="731" d="M227 0v1509h277v-1509h-277z" />
<glyph unicode="j" horiz-adv-x="1337" d="M72 354l258 68q2 -6 4 -14q2 -6 4 -13.5t4 -13.5q18 -53 43 -80t72 -27h305q47 0 79.5 34t32.5 81v1120h277v-1106q0 -84 -32 -157.5t-86 -128t-128 -86t-157 -31.5h-277q-76 0 -144.5 27.5t-122.5 75t-88 112t-44 139.5z" />
<glyph unicode="k" horiz-adv-x="1394" d="M227 0v1509h275v-645l475 645h313l-407 -583l428 -926h-291l-318 655l-200 -280v-375h-275z" />
<glyph unicode="l" horiz-adv-x="1402" d="M227 0v1509h275v-1235h809v-274h-1084z" />
<glyph unicode="m" horiz-adv-x="1742" d="M227 0v1509h269l374 -882l375 882h271v-1509h-275v788l-278 -575h-181l-278 575v-788h-277z" />
<glyph unicode="n" horiz-adv-x="1538" d="M227 0v1509h267l540 -946v946h277v-1509h-262l-547 971v-971h-275z" />
<glyph unicode="o" d="M186 403v703q0 84 32 157.5t86 128t128 86t158 31.5h276q84 0 157 -31.5t128 -86t87 -128t32 -157.5v-703q0 -84 -32 -157.5t-87 -128t-128 -86t-157 -31.5h-276q-84 0 -158 31.5t-128 86t-86 128t-32 157.5zM461 389q0 -47 33.5 -81t80.5 -34h304q47 0 80.5 34t33.5 81 v731q0 47 -33.5 81t-80.5 34h-304q-47 0 -80.5 -34t-33.5 -81v-731z" />
<glyph unicode="p" horiz-adv-x="1433" d="M227 0v1509h680q84 0 157 -31.5t128 -86t87 -128t32 -157.5v-86q0 -82 -32 -155.5t-87 -129t-128 -87.5t-157 -32h-405v-616h-275zM502 893h418q47 0 80.5 34t33.5 81v112q0 47 -33.5 81t-80.5 34h-418v-342z" />
<glyph unicode="q" horiz-adv-x="1466" d="M186 403v703q0 84 32 157.5t86 128t128 86t158 31.5h276q84 0 157 -31.5t128 -86t87 -128t32 -157.5v-703q0 -100 -47 -188l192 -192l-174 -175l-194 195q-41 -20 -86.5 -31.5t-94.5 -11.5h-276q-84 0 -158 31.5t-128 86t-86 128t-32 157.5zM461 389q0 -47 33.5 -81 t80.5 -34h304q47 0 80.5 34t33.5 81v731q0 47 -33.5 81t-80.5 34h-304q-47 0 -80.5 -34t-33.5 -81v-731z" />
<glyph unicode="r" horiz-adv-x="1435" d="M227 0v1509h680q84 0 157 -31.5t128 -86t87 -128t32 -157.5v-86q0 -68 -21.5 -130.5t-59.5 -112.5t-91.5 -87t-116.5 -55l289 -635h-303l-275 616h-231v-616h-275zM502 893h418q47 0 80.5 34t33.5 81v112q0 47 -33.5 81t-80.5 34h-418v-342z" />
<glyph unicode="s" horiz-adv-x="1388" d="M166 354l258 68q2 -6 4 -14q2 -6 4 -13.5t4 -13.5q18 -53 44 -80t73 -27h307q47 0 80 34t33 81v76q0 35 -19.5 62.5t-52.5 37.5l-477 131q-55 16 -102.5 50t-81 81t-52 105.5t-18.5 120.5v71q0 84 28.5 155t80 122t122 79.5t154.5 28.5h297q78 0 145.5 -26.5t122 -74.5 t89 -112.5t42.5 -138.5l-258 -70q-2 6 -4 15q-2 6 -3 14t-5 12q-18 53 -43 80t-72 27h-307q-47 0 -81 -34t-34 -81v-53q0 -106 113 -135q27 -6 91.5 -22.5t131.5 -32.5q80 -20 174 -46q61 -14 114.5 -48.5t92.5 -82t60.5 -108t21.5 -127.5v-55q0 -86 -29.5 -161t-83 -130.5 t-126 -87t-158.5 -31.5h-279q-78 0 -146.5 27.5t-122.5 75t-88 112t-44 139.5z" />
<glyph unicode="t" horiz-adv-x="1251" d="M63 1235v274h1084v-274h-404v-1235h-276v1235h-404z" />
<glyph unicode="u" d="M186 403v1106h275v-1120q0 -47 33.5 -81t80.5 -34h304q47 0 80.5 34t33.5 81v1120h277v-1106q0 -84 -32 -157.5t-87 -128t-128 -86t-157 -31.5h-276q-84 0 -158 31.5t-128 86t-86 128t-32 157.5z" />
<glyph unicode="v" horiz-adv-x="1251" d="M84 1509h274l267 -1026l266 1026h276l-409 -1509h-262z" />
<glyph unicode="w" horiz-adv-x="1579" d="M125 1509h274l127 -1001l195 766h135l197 -766l125 1001h276l-213 -1509h-291l-162 567l-159 -567h-293z" />
<glyph unicode="x" horiz-adv-x="1210" d="M63 0l400 766l-400 743h299l242 -454l244 454h299l-397 -743l397 -766h-299l-242 473l-244 -473h-299z" />
<glyph unicode="y" horiz-adv-x="1271" d="M84 1509h299l252 -499l254 499h299l-414 -817v-692h-276v692z" />
<glyph unicode="z" horiz-adv-x="1452" d="M182 0v264l746 971h-746v274h1084v-266l-731 -969h731v-274h-1084z" />
<glyph unicode="{" horiz-adv-x="878" d="M123 649v228q70 6 106.5 50t36.5 113v256q0 80 31 152t83 125t123.5 84t151.5 31h80v-238h-94q-57 0 -97 -40t-40 -99v-271q0 -82 -39 -153.5t-125 -124.5q86 -51 125 -122t39 -151v-294q0 -57 40 -97.5t97 -40.5h94v-233h-80q-80 0 -151.5 30.5t-123.5 84t-83 125 t-31 151.5v274q0 66 -36.5 110t-106.5 50z" />
<glyph unicode="|" horiz-adv-x="624" d="M227 -270v2076h170v-2076h-170z" />
<glyph unicode="}" horiz-adv-x="878" d="M143 57h95q57 0 97 40t40 98v294q0 80 39 151t125 122q-86 53 -125 124.5t-39 153.5v271q0 59 -40 99t-97 40h-95v238h80q80 0 151.5 -31t124 -84t83 -125t30.5 -152v-256q0 -70 37 -113.5t107 -49.5v-228q-70 -6 -107 -50t-37 -110v-274q0 -80 -30.5 -151.5t-83 -125 t-124 -84t-151.5 -30.5h-80v233z" />
<glyph unicode="~" horiz-adv-x="989" d="M123 1690v49q0 35 10 50t51 15h105q6 0 20.5 2t24.5 6l266 109q10 4 24.5 7t24.5 3h156q41 0 51 -19.5t10 -47.5v-49q0 -35 -10 -50.5t-51 -15.5h-109q-20 0 -41 -8l-262 -109q-10 -4 -23.5 -6t-23.5 -4h-162q-41 0 -51 16.5t-10 51.5z" />
<glyph unicode="&#xa1;" horiz-adv-x="686" d="M164 68v628l57 310q12 68 72 67h104q55 0 68 -67l57 -310v-628q0 -27 -19.5 -47.5t-47.5 -20.5h-226q-29 0 -47 20.5t-18 47.5zM188 1266v176q0 27 19.5 47t48.5 20h176q29 0 48.5 -20.5t19.5 -46.5v-176q0 -27 -19.5 -47.5t-48.5 -20.5h-178q-29 0 -47.5 20.5 t-18.5 47.5z" />
<glyph unicode="&#xa2;" horiz-adv-x="1394" d="M186 588v338q0 84 32 157.5t86 128t128 86t158 31.5h8v182h248v-182h22q78 0 145.5 -26.5t122 -74.5t89.5 -112.5t45 -138.5l-258 -70q-2 6 -4 15q-2 6 -4.5 14t-6.5 12q-18 53 -42.5 80t-71.5 27h-308q-47 0 -80.5 -34t-33.5 -81v-367q0 -47 33.5 -80.5t80.5 -33.5h304 q47 0 72.5 26.5t43.5 79.5q2 6 4 13.5t5 13.5q2 8 4 14l258 -67q-8 -76 -43 -140.5t-89.5 -111.5t-122 -75t-145.5 -28h-20v-184h-248v184h-8q-84 0 -158 32t-128 86t-86 128t-32 158z" />
<glyph unicode="&#xa3;" horiz-adv-x="1378" d="M166 0v274h70l69 349h-131v264h182l64 315q12 68 49 124t89 97t116.5 63.5t136.5 22.5h41q78 0 145.5 -26.5t122 -74.5t89 -112.5t44.5 -138.5l-258 -70q-2 6 -4 15q-2 6 -4 14t-6 12q-18 53 -43 80t-72 27h-69q-47 0 -76 -34t-39 -81l-45 -233h215v-264h-266l-66 -349 h727v-274h-1081z" />
<glyph unicode="&#xa4;" horiz-adv-x="1382" d="M16 451v170l170 30v119l-170 -31v172l170 31v164q0 84 32 157.5t86 128t128 86t158 31.5h278q78 0 145.5 -26.5t122 -74.5t89.5 -112.5t45 -138.5l-258 -70q-2 6 -4 15q-2 6 -4.5 14t-6.5 12q-18 53 -42.5 80t-71.5 27h-308q-47 0 -80.5 -34t-33.5 -81v-129l309 56v-170 l-309 -58v-119l309 56v-170l-309 -56v-141q0 -47 33.5 -81t80.5 -34h304q47 0 72.5 27t43.5 80q2 6 4 13t5 14q2 8 4 14l258 -68q-8 -76 -43 -140t-89.5 -111.5t-122 -75t-145.5 -27.5h-276q-84 0 -158 31.5t-128 86t-86 128t-32 157.5v78z" />
<glyph unicode="&#xa5;" horiz-adv-x="1372" d="M145 1509h265v-84q0 -33 2 -62.5t6 -39.5q6 -12 21.5 -41t35 -65.5t43 -79.5t45.5 -86q53 -100 117 -220q68 117 123 216q25 43 48 85t45 79.5t37 66.5t23 43q4 6 5.5 35.5t1.5 64.5v88h264q0 -86 -1 -130t-3 -68.5t-7.5 -39t-11.5 -36.5l-385 -643v-37h293v-256h-293 v-299h-276v297h-279v256h279v39q-98 162 -181 295q-35 57 -67.5 113.5t-60 104.5t-45 83t-21.5 47q-6 23 -10 37t-7.5 38.5t-4.5 69.5t-1 129z" />
<glyph unicode="&#xa6;" horiz-adv-x="575" d="M186 0v602h203v-602h-203zM186 907v602h203v-602h-203z" />
<glyph unicode="&#xa7;" horiz-adv-x="1230" d="M166 711v45q0 41 12 75.5t30.5 65.5t41 59.5t43.5 59.5q8 14 5 29.5t-9 31t-13.5 32.5t-7.5 34v57q0 68 22.5 124t63.5 97t97.5 63.5t123.5 22.5h156q61 0 115.5 -21.5t97.5 -59t70.5 -89t36.5 -110.5l-207 -56l-4 13q-2 4 -3 10t-3 10q-16 41 -35 62.5t-56 21.5h-163 q-39 0 -66 -26.5t-27 -65.5v-22q0 -43 25 -78t63 -49l279 -80q98 -29 164.5 -108t66.5 -187v-43q0 -41 -13 -77t-32.5 -67.5t-42 -61.5t-41.5 -58q-8 -12 -5 -27.5t10.5 -31t14.5 -32t7 -32.5v-58q0 -68 -22.5 -124t-63.5 -98t-97.5 -64.5t-123.5 -22.5h-156 q-61 0 -116.5 21.5t-98.5 59.5t-70.5 90t-33.5 112l207 55q0 -6 2 -12q2 -4 3 -10.5t3 -10.5q16 -41 35.5 -63.5t56.5 -22.5h164q39 0 65.5 26.5t26.5 65.5v23q0 43 -24.5 78t-63.5 51l-279 80q-98 29 -164.5 106.5t-66.5 186.5zM383 711q0 -29 15.5 -50.5t41.5 -29.5 l340 -105q18 -6 34.5 0t29 19.5t18.5 32t6 34.5v60q0 61 -57 82q-84 25 -154 47q-59 18 -112 34.5t-68 20.5q-20 6 -37.5 1t-30 -18.5t-19.5 -32t-7 -34.5v-61z" />
<glyph unicode="&#xa8;" horiz-adv-x="1097" d="M104 1698v157q0 23 17.5 41.5t42.5 18.5h164q25 0 42 -18.5t17 -41.5v-157q0 -23 -18.5 -41.5t-42.5 -18.5h-162q-25 0 -42.5 18.5t-17.5 41.5zM702 1698v157q0 23 18.5 41.5t43.5 18.5h164q25 0 41 -18.5t16 -41.5v-157q0 -23 -17.5 -41.5t-41.5 -18.5h-162 q-25 0 -43.5 18.5t-18.5 41.5z" />
<glyph unicode="&#xa9;" horiz-adv-x="1808" d="M166 518v471q0 106 42 200.5t112.5 165t165 112.5t200.5 42h438q104 0 198.5 -42t165.5 -112.5t112.5 -164.5t41.5 -201v-471q0 -104 -41.5 -198.5t-112.5 -165t-165 -112.5t-199 -42h-438q-106 0 -200.5 42t-165 112.5t-112.5 165t-42 198.5zM326 479q0 -68 24.5 -126 t67.5 -102t101.5 -68.5t125.5 -24.5h514q68 0 126 24.5t102.5 68.5t69 102.5t24.5 125.5v551q0 68 -24.5 126t-69 102.5t-102.5 69t-126 24.5h-514q-68 0 -126 -24.5t-101 -69t-67.5 -102.5t-24.5 -126v-551zM510 639v238q0 61 23.5 116.5t63.5 95t95.5 63.5t116.5 24h205 q55 0 103 -18.5t87 -51.5t65.5 -77t37.5 -97l-168 -45l-4 16q-16 41 -40 68.5t-71 27.5h-225q-47 0 -80 -31.5t-33 -78.5v-260q0 -47 33 -80t80 -33h223q47 0 70.5 27.5t40.5 72.5q2 4 2 6.5t2 6.5l168 -43q-20 -106 -101.5 -176t-191.5 -70h-203q-61 0 -116.5 23.5 t-95.5 63.5t-63.5 95.5t-23.5 116.5z" />
<glyph unicode="&#xaa;" horiz-adv-x="970" d="M104 666v65q0 23 7.5 35t38.5 12h671q31 -2 38 -14t7 -35v-65q0 -23 -7 -35.5t-38 -12.5h-671q-31 0 -38.5 12.5t-7.5 37.5zM141 1098v174q0 49 19.5 92t51.5 76t76 51t93 18h360v-401q0 -37 26 -62.5t60 -25.5v-162q-47 0 -88 17.5t-75 46.5q-33 -29 -74 -46.5 t-88 -17.5h-121q-49 0 -93 18.5t-76 51.5t-51.5 77t-19.5 93zM303 1087q0 -29 20.5 -48t49.5 -19h137q14 0 25.5 11t21.5 24q10 14 21 32v261h-205q-29 0 -49.5 -19.5t-20.5 -48.5v-193z" />
<glyph unicode="&#xab;" horiz-adv-x="1378" d="M103.5 751q-1.5 33 21.5 56l379 346q61 43 108 0l19.5 -19.5t17.5 -15.5q8 -8 15 -14q23 -23 26.5 -51.5t-24.5 -61.5l-211 -237l211 -238q29 -33 24.5 -61.5t-26.5 -51.5q-6 -6 -15 -14q-8 -6 -17 -15l-20 -20q-47 -43 -108 0l-379 346q-20 18 -21.5 51zM667 751 q-1 33 21 56l379 346q61 43 109 0q10 -10 19 -19.5t17 -15.5q8 -8 15 -14q23 -23 26.5 -51.5t-24.5 -61.5l-211 -237l211 -238q29 -33 24.5 -61.5t-26.5 -51.5q-6 -6 -15 -14q-8 -6 -17 -15t-19 -20q-47 -43 -109 0l-379 346q-20 18 -21 51z" />
<glyph unicode="&#xac;" horiz-adv-x="1329" d="M102 0l430 1509h263l432 -1509h-277l-67 248h-441l-63 -248h-277zM123 1292v158q0 23 17.5 41t41.5 18h164q25 0 42.5 -18t17.5 -41v-158q0 -23 -18.5 -41t-43.5 -18h-162q-25 0 -42 18.5t-17 40.5zM506 518h317l-159 506zM926 1292v158q0 23 18.5 41t42.5 18h164 q25 0 41 -18t16 -41v-158q0 -23 -17 -41t-42 -18h-162q-25 0 -43 18.5t-18 40.5z" />
<glyph unicode="&#xad;" horiz-adv-x="1011" d="M145 612v242h721v-242h-721z" />
<glyph unicode="&#xae;" horiz-adv-x="921" d="M166 1114v189q0 43 16.5 79.5t45 65.5t66.5 45t81 16h174q43 0 80 -16t65.5 -45t45 -65.5t16.5 -79.5v-189q0 -43 -16.5 -81t-45 -66.5t-65.5 -45t-80 -16.5h-174q-43 0 -81 16.5t-66.5 45t-45 66.5t-16.5 81zM229 1098q0 -53 38 -91t91 -38h205q53 0 91 37.5t38 91.5 v219q0 53 -37 92t-90 39h-207q-53 0 -91 -39t-38 -92v-219zM328 1040v336h178q41 0 73.5 -30.5t32.5 -71.5q0 -68 -71 -96l67 -138h-73l-62 129h-80v-129h-65zM393 1231h113q16 0 26.5 11t10.5 28v8q0 16 -10.5 26.5t-26.5 10.5h-113v-84z" />
<glyph unicode="&#xaf;" horiz-adv-x="907" d="M82 1778v51q0 33 10 48t51 15h621q41 0 51 -19.5t10 -47.5v-47q0 -33 -10 -49.5t-51 -16.5h-621q-41 0 -51 16.5t-10 49.5z" />
<glyph unicode="&#xb0;" horiz-adv-x="892" d="M166 1147v147q0 90 58.5 153.5t148.5 63.5h143q45 0 83 -17t66.5 -47t45 -69t16.5 -84v-147q0 -45 -16.5 -84t-45 -68.5t-66.5 -47t-83 -17.5h-143q-90 0 -148.5 63.5t-58.5 153.5zM330 1147q0 -16 14 -32.5t35 -16.5h131q23 0 36 16t13 33v147q0 16 -13.5 30.5 t-35.5 14.5h-131q-20 0 -34.5 -14t-14.5 -31v-147z" />
<glyph unicode="&#xb1;" horiz-adv-x="1171" d="M164 31v192h844v-192h-844zM166 653v201h319v320h201v-320h320v-201h-318v-317h-201v317h-321z" />
<glyph unicode="&#xb2;" horiz-adv-x="870" d="M205 1346l20 53q16 45 58.5 77.5t101.5 32.5h115q72 0 119 -47t47 -119v-28q0 -55 -33 -93t-74 -61l-168 -96q-20 -12 -27.5 -19.5t-9.5 -19.5h308v-139h-451v121q0 45 11 73.5t31.5 50t47.5 39t59 35.5q14 6 40 21.5t92 54.5q20 10 27 21.5t7 25.5v12q0 29 -28 29h-119 q-10 0 -16.5 -6t-12.5 -25l-12 -30z" />
<glyph unicode="&#xb3;" horiz-adv-x="864" d="M205 1053l129 32l10 -28q6 -20 12 -25.5t17 -5.5h119q10 0 19 8t9 21v49q0 29 -28 29h-119v141h119q10 0 19 8t9 21v36q0 12 -9 21.5t-19 9.5h-119q-23 0 -29 -22.5t-10 -38.5l-129 34q10 74 58 120t116 46h106q35 0 67 -13t55.5 -36.5t37.5 -55.5t14 -69v-28 q0 -29 -9 -55.5t-25 -49.5q16 -23 25 -48.5t9 -53.5v-41q0 -72 -51 -123t-123 -51h-106q-66 0 -115 46t-59 122z" />
<glyph unicode="&#xb4;" horiz-adv-x="942" d="M332 1661q-35 35 0 86l256 303q14 16 40.5 17t45.5 -17l90 -90q18 -18 17 -44t-19 -42l-301 -256q-53 -35 -90 2q-4 4 -11 12q-4 6 -11 12.5t-17 16.5z" />
<glyph unicode="&#xb6;" horiz-adv-x="1288" d="M84 952v154q0 84 31.5 157.5t86 128t128 86t157.5 31.5h594v-1753h-180v1479h-143v-1479h-178v793h-93q-82 0 -155.5 31.5t-129 87t-87 129t-31.5 155.5z" />
<glyph unicode="&#xb7;" horiz-adv-x="765" d="M227 666v176q0 27 19.5 47t48.5 20h178q29 0 47.5 -20.5t18.5 -46.5v-176q0 -27 -19.5 -47.5t-48.5 -20.5h-176q-29 0 -48.5 20.5t-19.5 47.5z" />
<glyph unicode="&#xb8;" horiz-adv-x="894" d="M141 -348l226 534q10 23 36.5 33t51.5 -2l159 -78q27 -12 34 -38.5t-5 -49.5l-283 -506q-41 -53 -94 -28q-16 10 -35 18q-16 8 -31.5 15.5t-27.5 13.5q-47 27 -31 88z" />
<glyph unicode="&#xb9;" horiz-adv-x="712" d="M205 887v133h82v356h-82v133h221v-489h82v-133h-303z" />
<glyph unicode="&#xba;" horiz-adv-x="970" d="M104 664v67q0 23 7.5 34t38.5 11h671q31 0 38 -13t7 -34v-65q0 -23 -7 -35.5t-38 -12.5h-671q-31 0 -38.5 12.5t-7.5 35.5zM166 1096v176q0 49 18.5 92t51 76t75.5 51t92 18h164q49 0 92 -18t76 -51t51.5 -76t18.5 -92v-176q0 -49 -18.5 -92t-51.5 -76t-76 -51.5 t-92 -18.5h-164q-49 0 -92 18.5t-75.5 51.5t-51 76t-18.5 92zM328 1087q0 -29 19.5 -48t47.5 -19h178q29 0 48.5 19.5t19.5 47.5v193q0 29 -19.5 48.5t-48.5 19.5h-178q-29 0 -48 -19.5t-19 -48.5v-193z" />
<glyph unicode="&#xbb;" horiz-adv-x="1378" d="M125 454.5q-4 28.5 25 61.5l210 238l-210 237q-29 33 -25 61.5t27 51.5l14 14q8 6 17.5 15.5l19.5 19.5q47 43 106 0l381 -346q23 -23 22 -55.5t-22 -51.5l-379 -346q-61 -43 -108 0l-19.5 19.5t-17.5 15.5l-14 14q-23 23 -27 51.5zM688 454.5q-4 28.5 25 61.5l211 238 l-211 237q-29 33 -25 61.5t27 51.5l14 14q8 6 17.5 15.5l19.5 19.5q47 43 106 0l381 -346q23 -23 22 -55.5t-22 -51.5l-379 -346q-61 -43 -108 0l-19.5 19.5t-17.5 15.5l-14 14q-23 23 -27 51.5z" />
<glyph unicode="&#xbc;" horiz-adv-x="1216" d="M92 436l936 795l96 -115l-934 -792zM133 887v133h82v356h-82v133h221v-489h82v-133h-303zM567 141v115l262 367h125v-351h66v-131h-66v-141h-139v141h-248zM737 272h78v109z" />
<glyph unicode="&#xbd;" horiz-adv-x="1216" d="M92 436l936 795l96 -115l-934 -792zM113 887v133h82v356h-82v133h221v-489h82v-133h-303zM641 459l18 53q16 45 59.5 78t102.5 33h115q72 0 119 -47.5t47 -118.5v-29q0 -55 -33 -93t-74 -61l-168 -96q-23 -12 -29.5 -19t-6.5 -20h307v-139h-451v121q0 45 11.5 73.5t31 50 t47 39t60.5 35.5q14 8 39.5 22.5t91.5 53.5q35 20 35 47v13q0 29 -29 28h-119q-10 0 -16 -6t-13 -24l-12 -31z" />
<glyph unicode="&#xbe;" horiz-adv-x="1247" d="M61 1053l129 32l11 -28q6 -20 12 -25.5t16 -5.5h119q10 0 19.5 8t9.5 21v49q0 29 -29 29h-119v141h119q10 0 19.5 8t9.5 21v36q0 12 -9.5 21.5t-19.5 9.5h-119q-23 0 -28.5 -22.5t-10.5 -38.5l-129 34q10 74 58.5 120t116.5 46h106q35 0 66.5 -13t55 -36.5t38 -55.5 t14.5 -69v-28q0 -29 -9 -55.5t-26 -49.5q16 -23 25.5 -48.5t9.5 -53.5v-41q0 -72 -51 -123t-123 -51h-106q-66 0 -115 46t-60 122zM123 436l936 795l96 -115l-934 -792zM618 141v115l263 367h125v-351h65v-131h-65v-141h-140v141h-248zM788 272h78v109z" />
<glyph unicode="&#xbf;" horiz-adv-x="1286" d="M143 385v72q0 98 50.5 167.5t128.5 129.5l196 149q29 23 48.5 48.5t19.5 60.5v26q0 20 10 27.5t25 7.5h198q16 0 25.5 -6t9.5 -29v-26q0 -109 -53 -184.5t-144 -147.5l-129 -102q-53 -41 -81.5 -74t-28.5 -86v-29q0 -47 33.5 -81t80.5 -34h273q92 0 129 107q4 6 5 13 t3 14q2 8 4 14l258 -70q-8 -74 -43 -138t-89 -112.5t-121.5 -75t-145.5 -26.5h-277q-84 0 -154.5 28.5t-121.5 80t-80 122t-29 154.5zM563 1266v176q0 27 18.5 47t47.5 20h178q29 0 48 -20.5t19 -46.5v-176q0 -27 -19 -47.5t-48 -20.5h-176q-29 0 -48.5 20.5t-19.5 47.5z " />
<glyph unicode="&#xc0;" horiz-adv-x="1204" d="M123 0q0 86 1 131t3 69.5t7 39t11 36.5l387 1233h263q96 -301 176 -553q35 -106 68.5 -214.5t62 -200.5t50.5 -163t30 -102q6 -23 10 -37t7 -39.5t4 -70.5t1 -129h-264v70q0 29 -1 54.5t-5 35.5q-8 29 -15.5 50t-11.5 38q-6 18 -8 31h-475q-2 -12 -8 -29 q-4 -14 -9.5 -35.5t-13.5 -52.5q-4 -10 -5 -37t-1 -55v-70h-264zM310.5 1916q-1.5 26 17.5 44l90 90q18 18 44.5 17t41.5 -17l256 -303q35 -51 0 -86q-8 -10 -16.5 -16.5t-12.5 -12.5q-6 -8 -10 -12q-37 -37 -90 -2l-301 256q-18 16 -19.5 42zM506 549h315l-157 504z" />
<glyph unicode="&#xc1;" horiz-adv-x="1343" d="M123 0q0 86 1 131t3 69.5t7 39t11 36.5l387 1233h263q96 -301 176 -553q35 -106 68.5 -214.5t62 -200.5t50.5 -163t30 -102q6 -23 10 -37t7 -39.5t4 -70.5t1 -129h-264v70q0 29 -1 54.5t-5 35.5q-8 29 -15.5 50t-11.5 38q-6 18 -8 31h-475q-2 -12 -8 -29 q-4 -14 -9.5 -35.5t-13.5 -52.5q-4 -10 -5 -37t-1 -55v-70h-264zM506 549h315l-157 504zM575 1661q-35 35 0 86l256 303q14 16 41 17t46 -17l90 -90q18 -18 17 -44t-19 -42l-301 -256q-53 -35 -91 2q-4 4 -10 12q-4 6 -11 12.5t-18 16.5z" />
<glyph unicode="&#xc2;" horiz-adv-x="1333" d="M123 0q0 86 1 131t3 69.5t7 39t11 36.5l387 1233h263q96 -301 176 -553q35 -106 68.5 -214.5t62 -200.5t50.5 -163t30 -102q6 -23 10 -37t7 -39.5t4 -70.5t1 -129h-264v70q0 29 -1 54.5t-5 35.5q-8 29 -15.5 50t-11.5 38q-6 18 -8 31h-475q-2 -12 -8 -29 q-4 -14 -9.5 -35.5t-13.5 -52.5q-4 -10 -5 -37t-1 -55v-70h-264zM324 1659q-35 37 0 86l276 303q14 16 41 17t45 -15l277 -303q35 -51 0 -86q-8 -10 -16.5 -16.5t-12.5 -12.5q-6 -8 -10 -12q-18 -20 -41 -23.5t-49 19.5l-191 170l-190 -168q-27 -23 -50.5 -21t-40.5 21 q-4 4 -10 12q-10 12 -28 29zM506 549h315l-157 504z" />
<glyph unicode="&#xc3;" horiz-adv-x="1323" d="M123 0q0 86 1 131t3 69.5t7 39t11 36.5l387 1233h263q96 -301 176 -553q35 -106 68.5 -214.5t62 -200.5t50.5 -163t30 -102q6 -23 10 -37t7 -39.5t4 -70.5t1 -129h-264v70q0 29 -1 54.5t-5 35.5q-8 29 -15.5 50t-11.5 38q-6 18 -8 31h-475q-2 -12 -8 -29 q-4 -14 -9.5 -35.5t-13.5 -52.5q-4 -10 -5 -37t-1 -55v-70h-264zM260 1690v49q0 35 10 50t51 15h105q6 0 20.5 2t24.5 6l266 109q10 4 24.5 7t24.5 3h156q41 0 51 -19.5t10 -47.5v-49q0 -35 -10 -50.5t-51 -15.5h-109q-20 0 -41 -8l-262 -109q-10 -4 -23.5 -6t-23.5 -4h-162 q-41 0 -51 16.5t-10 51.5zM506 549h315l-157 504z" />
<glyph unicode="&#xc4;" horiz-adv-x="1327" d="M123 0q0 86 1 131t3 69.5t7 39t11 36.5l387 1233h263q96 -301 176 -553q35 -106 68.5 -214.5t62 -200.5t50.5 -163t30 -102q6 -23 10 -37t7 -39.5t4 -70.5t1 -129h-264v70q0 29 -1 54.5t-5 35.5q-8 29 -15.5 50t-11.5 38q-6 18 -8 31h-475q-2 -12 -8 -29 q-4 -14 -9.5 -35.5t-13.5 -52.5q-4 -10 -5 -37t-1 -55v-70h-264zM203 1696v157q0 23 17.5 42.5t41.5 19.5h164q25 0 42 -18.5t17 -41.5v-157q0 -23 -18 -42.5t-43 -19.5h-162q-25 0 -42 18.5t-17 41.5zM506 549h315l-157 504zM801 1696v157q0 23 18.5 42.5t42.5 19.5h164 q25 0 41 -18.5t16 -41.5v-157q0 -23 -17 -42.5t-42 -19.5h-162q-25 0 -43 18.5t-18 41.5z" />
<glyph unicode="&#xc5;" horiz-adv-x="1327" d="M123 0q0 86 1 131t3 69.5t7 39t11 36.5l387 1233h263q96 -301 176 -553q35 -106 68.5 -214.5t62 -200.5t50.5 -163t30 -102q6 -23 10 -37t7 -39.5t4 -70.5t1 -129h-264v70q0 29 -1 54.5t-5 35.5q-8 29 -15.5 50t-11.5 38q-6 18 -8 31h-475q-2 -12 -8 -29 q-4 -14 -9.5 -35.5t-13.5 -52.5q-4 -10 -5 -37t-1 -55v-70h-264zM469 1731v92q0 55 37 95t92 40h90q55 0 93 -40t38 -95v-92q0 -55 -38 -95.5t-93 -40.5h-90q-55 0 -92 40t-37 96zM506 549h315l-157 504zM571 1731q0 -10 9.5 -20.5t21.5 -10.5h82q14 0 22.5 10t8.5 21v92 q0 10 -8.5 19t-22.5 9h-82q-12 0 -21.5 -9t-9.5 -19v-92z" />
<glyph unicode="&#xc6;" horiz-adv-x="1957" d="M123 0q0 86 1 131t3 69.5t7 39t11 36.5l502 1233h1157v-274h-667v-342h477v-277h-477v-342h667v-274h-942v279h-434q-4 -12 -10 -29q-10 -31 -25 -88q-4 -10 -5 -37t-1 -55v-70h-264zM530 549h332v686h-57z" />
<glyph unicode="&#xc7;" horiz-adv-x="1382" d="M186 403v703q0 84 32 157.5t86 128t128 86t158 31.5h278q78 0 145.5 -26.5t122 -74.5t89.5 -112.5t45 -138.5l-258 -70q-2 6 -4 15q-2 6 -4.5 14t-6.5 12q-18 53 -42.5 80t-71.5 27h-308q-47 0 -80.5 -34t-33.5 -81v-731q0 -47 33.5 -81t80.5 -34h304q47 0 72.5 27 t43.5 80q2 6 4 13t5 14q2 8 4 14l258 -68q-8 -76 -43 -140t-89.5 -111.5t-122 -75t-145.5 -27.5h-4l-200 -356q-41 -53 -93 -29l-94 47q-49 27 -31 88l111 252q-78 6 -145.5 40t-116.5 88t-78 124t-29 149z" />
<glyph unicode="&#xc8;" horiz-adv-x="1464" d="M227 0v1509h1084v-274h-809v-324h618v-276h-618v-361h809v-274h-1084zM443.5 1916q-1.5 26 17.5 44l90 90q18 18 45 17t41 -17l256 -303q35 -51 0 -86q-8 -10 -16.5 -16.5t-12.5 -12.5q-6 -8 -10 -12q-37 -37 -90 -2l-301 256q-18 16 -19.5 42z" />
<glyph unicode="&#xc9;" horiz-adv-x="1464" d="M227 0v1509h1084v-274h-809v-324h618v-276h-618v-361h809v-274h-1084zM598 1661q-35 35 0 86l256 303q14 16 41 17t45 -17l90 -90q18 -18 17.5 -44t-19.5 -42l-301 -256q-53 -35 -90 2q-4 4 -10 12q-4 6 -11.5 12.5t-17.5 16.5z" />
<glyph unicode="&#xca;" horiz-adv-x="1464" d="M227 0v1509h1084v-274h-809v-324h618v-276h-618v-361h809v-274h-1084zM444 1661q-35 35 0 86l277 303q16 16 41.5 16t44.5 -16l276 -303q35 -51 0 -86q-8 -10 -16 -16.5t-12 -12.5q-6 -8 -11 -12q-18 -18 -40.5 -21.5t-49.5 19.5l-190 168l-191 -168q-27 -23 -49 -19.5 t-41 21.5q-4 4 -10 12q-4 6 -11 12.5t-18 16.5z" />
<glyph unicode="&#xcb;" horiz-adv-x="1464" d="M227 0v1509h1084v-274h-809v-324h618v-276h-618v-361h809v-274h-1084zM340 1698v157q0 23 17.5 41.5t41.5 18.5h164q25 0 42.5 -18.5t17.5 -41.5v-157q0 -23 -18.5 -41.5t-43.5 -18.5h-162q-25 0 -42 18.5t-17 41.5zM938 1698v157q0 23 18.5 41.5t42.5 18.5h164 q25 0 41.5 -18.5t16.5 -41.5v-157q0 -23 -17.5 -41.5t-42.5 -18.5h-162q-25 0 -43 18.5t-18 41.5z" />
<glyph unicode="&#xcc;" horiz-adv-x="1075" d="M186 0v274h213v961h-213v274h703v-274h-213v-961h213v-274h-703zM220.5 1916q-1.5 26 17.5 44l90 90q18 18 44.5 17t41.5 -17l256 -303q35 -51 0 -86q-8 -10 -16.5 -16.5t-12.5 -12.5q-6 -8 -10 -12q-37 -37 -90 -2l-301 256q-18 16 -19.5 42z" />
<glyph unicode="&#xcd;" horiz-adv-x="1075" d="M186 0v274h213v961h-213v274h703v-274h-213v-961h213v-274h-703zM453 1661q-35 35 0 86l256 303q14 16 40.5 17t45.5 -17l90 -90q18 -18 17 -44t-19 -42l-301 -256q-53 -35 -90 2q-4 4 -11 12q-4 6 -11 12.5t-17 16.5z" />
<glyph unicode="&#xce;" horiz-adv-x="1075" d="M186 0v274h213v961h-213v274h703v-274h-213v-961h213v-274h-703zM219 1661q-35 35 0 86l277 303q14 16 40.5 16t45.5 -16l276 -303q35 -51 0 -86q-8 -10 -16 -16.5t-13 -12.5q-6 -8 -10 -12q-18 -18 -40.5 -21.5t-49.5 19.5l-190 168l-191 -168q-27 -23 -49.5 -19.5 t-40.5 21.5q-4 4 -10 12q-4 6 -11.5 12.5t-17.5 16.5z" />
<glyph unicode="&#xcf;" horiz-adv-x="1075" d="M96 1698v157q0 23 17.5 41.5t42.5 18.5h163q25 0 42.5 -18.5t17.5 -41.5v-157q0 -23 -18.5 -41.5t-43.5 -18.5h-161q-25 0 -42.5 18.5t-17.5 41.5zM186 0v274h213v961h-213v274h703v-274h-213v-961h213v-274h-703zM694 1698v157q0 23 18.5 41.5t43.5 18.5h164 q25 0 41 -18.5t16 -41.5v-157q0 -23 -17.5 -41.5t-41.5 -18.5h-162q-25 0 -43.5 18.5t-18.5 41.5z" />
<glyph unicode="&#xd0;" horiz-adv-x="1474" d="M0 635v264h225v610h680q84 0 157 -31.5t128 -86t87 -128t32 -157.5v-703q0 -84 -32 -157.5t-86 -128t-127 -86t-157 -31.5h-682v635h-225zM500 274h418q47 0 80.5 34t33.5 81v731q0 47 -33.5 81t-80.5 34h-418v-336h237v-264h-237v-361z" />
<glyph unicode="&#xd1;" horiz-adv-x="1538" d="M227 0v1509h267l540 -946v946h277v-1509h-262l-547 971v-971h-275zM406 1690v49q0 35 10 50t51 15h105q6 0 20.5 2t24.5 6l266 109q10 4 24.5 7t24.5 3h156q41 0 51 -19.5t10 -47.5v-49q0 -35 -10 -50.5t-51 -15.5h-109q-20 0 -41 -8l-262 -109q-10 -4 -23.5 -6t-23.5 -4 h-162q-41 0 -51 16.5t-10 51.5z" />
<glyph unicode="&#xd2;" d="M186 403v703q0 84 32 157.5t86 128t128 86t158 31.5h276q84 0 157 -31.5t128 -86t87 -128t32 -157.5v-703q0 -84 -32 -157.5t-87 -128t-128 -86t-157 -31.5h-276q-84 0 -158 31.5t-128 86t-86 128t-32 157.5zM419 1916q-1 26 17 44l90 90q18 18 45 17t41 -17l256 -303 q35 -51 0 -86q-8 -10 -16 -16.5t-12 -12.5q-6 -8 -11 -12q-37 -37 -90 -2l-301 256q-18 16 -19 42zM461 389q0 -47 33.5 -81t80.5 -34h304q47 0 80.5 34t33.5 81v731q0 47 -33.5 81t-80.5 34h-304q-47 0 -80.5 -34t-33.5 -81v-731z" />
<glyph unicode="&#xd3;" d="M186 403v703q0 84 32 157.5t86 128t128 86t158 31.5h276q84 0 157 -31.5t128 -86t87 -128t32 -157.5v-703q0 -84 -32 -157.5t-87 -128t-128 -86t-157 -31.5h-276q-84 0 -158 31.5t-128 86t-86 128t-32 157.5zM461 389q0 -47 33.5 -81t80.5 -34h304q47 0 80.5 34t33.5 81 v731q0 47 -33.5 81t-80.5 34h-304q-47 0 -80.5 -34t-33.5 -81v-731zM625 1661q-35 35 0 86l256 303q14 16 40.5 17t45.5 -17l90 -90q18 -18 17 -44t-19 -42l-301 -256q-53 -35 -90 2q-4 4 -11 12q-4 6 -11 12.5t-17 16.5z" />
<glyph unicode="&#xd4;" d="M186 403v703q0 84 32 157.5t86 128t128 86t158 31.5h276q84 0 157 -31.5t128 -86t87 -128t32 -157.5v-703q0 -84 -32 -157.5t-87 -128t-128 -86t-157 -31.5h-276q-84 0 -158 31.5t-128 86t-86 128t-32 157.5zM408 1663q-35 37 0 86l276 303q16 16 42 17.5t44 -15.5 l277 -303q35 -51 0 -86q-8 -10 -16.5 -16.5t-12.5 -12.5q-6 -8 -10 -12q-18 -20 -41 -23.5t-49 19.5l-191 170l-190 -168q-27 -23 -49.5 -20.5t-41.5 20.5q-4 4 -10 12q-10 12 -28 29zM461 389q0 -47 33.5 -81t80.5 -34h304q47 0 80.5 34t33.5 81v731q0 47 -33.5 81 t-80.5 34h-304q-47 0 -80.5 -34t-33.5 -81v-731z" />
<glyph unicode="&#xd5;" horiz-adv-x="1470" d="M186 403v703q0 84 32 157.5t86 128t128 86t158 31.5h276q84 0 157 -31.5t128 -86t87 -128t32 -157.5v-703q0 -84 -32 -157.5t-87 -128t-128 -86t-157 -31.5h-276q-84 0 -158 31.5t-128 86t-86 128t-32 157.5zM406 1690v49q0 35 10 50t51 15h105q6 0 20.5 2t24.5 6 l266 109q10 4 24.5 7t24.5 3h156q41 0 51 -19.5t10 -47.5v-49q0 -35 -10 -50.5t-51 -15.5h-109q-20 0 -41 -8l-262 -109q-10 -4 -23.5 -6t-23.5 -4h-162q-41 0 -51 16.5t-10 51.5zM461 389q0 -47 33.5 -81t80.5 -34h304q47 0 80.5 34t33.5 81v731q0 47 -33.5 81t-80.5 34 h-304q-47 0 -80.5 -34t-33.5 -81v-731z" />
<glyph unicode="&#xd6;" d="M186 403v703q0 84 32 157.5t86 128t128 86t158 31.5h276q84 0 157 -31.5t128 -86t87 -128t32 -157.5v-703q0 -84 -32 -157.5t-87 -128t-128 -86t-157 -31.5h-276q-84 0 -158 31.5t-128 86t-86 128t-32 157.5zM287 1698v157q0 23 17.5 41.5t41.5 18.5h164q25 0 42 -18.5 t17 -41.5v-157q0 -23 -18.5 -41.5t-42.5 -18.5h-162q-25 0 -42 18.5t-17 41.5zM461 389q0 -47 33.5 -81t80.5 -34h304q47 0 80.5 34t33.5 81v731q0 47 -33.5 81t-80.5 34h-304q-47 0 -80.5 -34t-33.5 -81v-731zM885 1698v157q0 23 18.5 41.5t42.5 18.5h164q25 0 41 -18.5 t16 -41.5v-157q0 -23 -17 -41.5t-42 -18.5h-162q-25 0 -43 18.5t-18 41.5z" />
<glyph unicode="&#xd7;" horiz-adv-x="1155" d="M154 475l260 260l-260 260l165 164l259 -260l260 258l163 -164l-258 -258l258 -258l-163 -164l-260 258l-259 -260z" />
<glyph unicode="&#xd8;" horiz-adv-x="1503" d="M104 12l168 240q-29 74 -28 151v703q0 84 31.5 157.5t86 128t128 86t157.5 31.5h277q104 0 194 -51l119 166l215 -151l-154 -216q29 -74 29 -151v-703q0 -84 -31.5 -157.5t-87 -128t-128 -86t-156.5 -31.5h-277q-53 0 -101 13.5t-93 35.5l-131 -188zM514 389 q0 -47 34 -81t81 -34h303q47 0 81 34t34 81v731q0 47 -34 81t-81 34h-303q-47 0 -81 -34t-34 -81v-731z" />
<glyph unicode="&#xd9;" d="M186 403v1106h275v-1120q0 -47 33.5 -81t80.5 -34h304q47 0 80.5 34t33.5 81v1120h277v-1106q0 -84 -32 -157.5t-87 -128t-128 -86t-157 -31.5h-276q-84 0 -158 31.5t-128 86t-86 128t-32 157.5zM419 1916q-1 26 17 44l90 90q18 18 45 17t41 -17l256 -303q35 -51 0 -86 q-8 -10 -16 -16.5t-12 -12.5q-6 -8 -11 -12q-37 -37 -90 -2l-301 256q-18 16 -19 42z" />
<glyph unicode="&#xda;" d="M186 403v1106h275v-1120q0 -47 33.5 -81t80.5 -34h304q47 0 80.5 34t33.5 81v1120h277v-1106q0 -84 -32 -157.5t-87 -128t-128 -86t-157 -31.5h-276q-84 0 -158 31.5t-128 86t-86 128t-32 157.5zM651 1661q-35 35 0 86l256 303q14 16 41 17t45 -17l90 -90 q18 -18 17.5 -44t-19.5 -42l-301 -256q-53 -35 -90 2q-4 4 -10 12q-4 6 -11 12.5t-18 16.5z" />
<glyph unicode="&#xdb;" d="M186 403v1106h275v-1120q0 -47 33.5 -81t80.5 -34h304q47 0 80.5 34t33.5 81v1120h277v-1106q0 -84 -32 -157.5t-87 -128t-128 -86t-157 -31.5h-276q-84 0 -158 31.5t-128 86t-86 128t-32 157.5zM410 1663q-35 35 0 86l276 303q14 16 41 16t45 -16l277 -303q35 -49 0 -86 q-10 -10 -17.5 -16.5t-11.5 -12.5q-6 -8 -10 -12q-18 -18 -41 -21.5t-49 19.5l-191 168l-190 -168q-27 -23 -50.5 -19.5t-39.5 21.5q-4 4 -11 12q-4 6 -11 12.5t-17 16.5z" />
<glyph unicode="&#xdc;" d="M186 403v1106h275v-1120q0 -47 33.5 -81t80.5 -34h304q47 0 80.5 34t33.5 81v1120h277v-1106q0 -84 -32 -157.5t-87 -128t-128 -86t-157 -31.5h-276q-84 0 -158 31.5t-128 86t-86 128t-32 157.5zM287 1698v157q0 23 17.5 41.5t41.5 18.5h164q25 0 42 -18.5t17 -41.5v-157 q0 -23 -18.5 -41.5t-42.5 -18.5h-162q-25 0 -42 18.5t-17 41.5zM885 1698v157q0 23 18.5 41.5t42.5 18.5h164q25 0 41 -18.5t16 -41.5v-157q0 -23 -17 -41.5t-42 -18.5h-162q-25 0 -43 18.5t-18 41.5z" />
<glyph unicode="&#xdd;" horiz-adv-x="1290" d="M104 1378v131h265v-84q0 -33 2 -63.5t6 -40.5q6 -12 21.5 -41t36 -65.5t43 -79.5t46.5 -86l121 -220q66 115 119 213q23 43 46.5 85t43.5 80t35.5 68t21.5 46q6 6 8.5 35.5t2.5 64.5v88h264q0 -86 -1 -135t-3 -76.5t-6.5 -40t-12.5 -24.5l-379 -643v-590h-276v590 l-381 643q-8 18 -13 32.5t-7.5 40t-2.5 72.5zM518 1661q-35 35 0 86l256 303q14 16 41 17t45 -17l90 -90q18 -18 17.5 -44t-19.5 -42l-301 -256q-53 -35 -90 2q-4 4 -10 12q-4 6 -11.5 12.5t-17.5 16.5z" />
<glyph unicode="&#xde;" horiz-adv-x="1392" d="M227 0v1509h275v-241h405q84 0 157 -32t128 -86t87 -128t32 -158v-86q0 -82 -32 -155.5t-87 -129t-128 -87t-157 -31.5h-405v-375h-275zM502 651h418q47 0 80.5 34t33.5 81v113q0 47 -33.5 80.5t-80.5 33.5h-418v-342z" />
<glyph unicode="&#xdf;" d="M207 -244v1350q0 84 31.5 157.5t87 128t129 86t155.5 31.5h209q84 0 157 -31.5t128 -86t87 -128t32 -157.5v-68q0 -66 -19.5 -122t-54.5 -105q53 -41 97 -122t44 -181v-105q0 -84 -31.5 -157.5t-87 -128t-128 -86t-156.5 -31.5h-221v274h233q47 0 81 34t34 81v131 q0 47 -34 80t-81 33h-233v276h165q47 0 81 34t34 81v96q0 47 -33.5 81t-81.5 34h-235q-47 0 -81 -34t-34 -81v-1364h-274z" />
<glyph unicode="&#xe0;" horiz-adv-x="1329" d="M102 0l430 1509h263l432 -1509h-277l-67 248h-441l-63 -248h-277zM306.5 1916q-1.5 26 17.5 44l90 90q18 18 44.5 17t41.5 -17l256 -303q35 -51 0 -86q-8 -10 -16.5 -16.5t-12.5 -12.5q-6 -8 -10 -12q-37 -37 -90 -2l-301 256q-18 16 -19.5 42zM506 518h317l-159 506z " />
<glyph unicode="&#xe1;" horiz-adv-x="1329" d="M102 0l430 1509h263l432 -1509h-277l-67 248h-441l-63 -248h-277zM506 518h317l-159 506zM573 1661q-35 35 0 86l256 303q14 16 41 17t45 -17l91 -90q18 -18 16 -44t-18 -42l-302 -256q-55 -37 -90 2q-4 4 -10 12q-4 6 -11 12.5t-18 16.5z" />
<glyph unicode="&#xe2;" horiz-adv-x="1329" d="M102 0l430 1509h263l432 -1509h-277l-67 248h-441l-63 -248h-277zM324 1659q-35 37 0 86l276 303q16 16 42 17t44 -15l277 -303q35 -51 0 -86q-8 -10 -16.5 -16.5t-12.5 -12.5q-6 -8 -10 -12q-18 -20 -41 -23.5t-49 19.5l-191 170l-190 -168q-27 -23 -49.5 -21t-41.5 21 q-4 4 -10 12q-10 12 -28 29zM506 518h317l-159 506z" />
<glyph unicode="&#xe3;" horiz-adv-x="1329" d="M102 0l430 1509h263l432 -1509h-277l-67 248h-441l-63 -248h-277zM256 1686v49q0 35 10 50t51 15h105q6 0 20.5 2t24.5 6l266 109q10 4 24.5 7t24.5 3h156q41 0 51 -19.5t10 -47.5v-49q0 -35 -10 -50.5t-51 -15.5h-109q-20 0 -41 -8l-262 -109q-10 -4 -23.5 -6t-23.5 -4 h-162q-41 0 -51 16.5t-10 51.5zM506 518h317l-159 506z" />
<glyph unicode="&#xe4;" horiz-adv-x="1329" d="M102 0l430 1509h263l432 -1509h-277l-67 248h-441l-63 -248h-277zM203 1696v157q0 23 17.5 42.5t41.5 19.5h164q25 0 42 -18.5t17 -41.5v-157q0 -23 -18 -42.5t-43 -19.5h-162q-25 0 -42 18.5t-17 41.5zM506 518h317l-159 506zM801 1696v157q0 23 18.5 42.5t42.5 19.5 h164q25 0 41 -18.5t16 -41.5v-157q0 -23 -17 -42.5t-42 -19.5h-162q-25 0 -43 18.5t-18 41.5z" />
<glyph unicode="&#xe5;" horiz-adv-x="1329" d="M102 0l430 1509h263l432 -1509h-277l-67 248h-441l-63 -248h-277zM469 1731v92q0 55 37 96t92 41h90q55 0 94 -40t39 -95v-92q0 -55 -38 -96.5t-93 -41.5h-90q-55 0 -93 40t-38 96zM506 518h317l-159 506zM571 1733q0 -10 9.5 -21.5t21.5 -11.5h82q14 0 22.5 10t8.5 23 l2 90q0 10 -8.5 20t-22.5 10h-82q-12 0 -22.5 -9t-10.5 -19v-92z" />
<glyph unicode="&#xe6;" horiz-adv-x="2023" d="M63 0l625 1509h1182v-274h-668v-342h477v-277h-477v-342h668v-274h-952v279h-445l-113 -279h-297zM575 549h343v686h-68z" />
<glyph unicode="&#xe7;" horiz-adv-x="1382" d="M186 403v703q0 84 32 157.5t86 128t128 86t158 31.5h278q78 0 145.5 -26.5t122 -74.5t89.5 -112.5t45 -138.5l-258 -70q-2 6 -4 15q-2 6 -4.5 14t-6.5 12q-18 53 -42.5 80t-71.5 27h-308q-47 0 -80.5 -34t-33.5 -81v-731q0 -47 33.5 -81t80.5 -34h304q47 0 72.5 27 t43.5 80q2 6 4 13t5 14q2 8 4 14l258 -68q-8 -76 -43 -140t-89.5 -111.5t-122 -75t-145.5 -27.5h-41l-207 -369q-33 -41 -71 -22l-29 14l-45 23q-35 20 -22 67l120 287q-80 4 -150.5 37t-122.5 87t-82 126t-30 153z" />
<glyph unicode="&#xe8;" horiz-adv-x="1464" d="M227 0v1509h1084v-274h-809v-324h618v-276h-618v-361h809v-274h-1084zM435.5 1916q-1.5 26 17.5 44l90 90q18 18 44.5 17t41.5 -17l256 -303q35 -51 0 -86q-8 -10 -16.5 -16.5t-12.5 -12.5q-6 -8 -10 -12q-37 -37 -90 -2l-301 256q-18 16 -19.5 42z" />
<glyph unicode="&#xe9;" horiz-adv-x="1464" d="M227 0v1509h1084v-274h-809v-324h618v-276h-618v-361h809v-274h-1084zM598 1661q-35 35 0 86l256 303q14 16 41 17t45 -17l90 -90q18 -18 17.5 -44t-19.5 -42l-301 -256q-53 -35 -90 2q-4 4 -10 12q-4 6 -11.5 12.5t-17.5 16.5z" />
<glyph unicode="&#xea;" horiz-adv-x="1464" d="M227 0v1509h1084v-274h-809v-324h618v-276h-618v-361h809v-274h-1084zM444 1661q-35 35 0 86l277 303q16 16 41.5 16t44.5 -16l276 -303q35 -51 0 -86q-8 -10 -16 -16.5t-12 -12.5q-6 -8 -11 -12q-18 -18 -40.5 -21.5t-49.5 19.5l-190 168l-191 -168q-27 -23 -49 -19.5 t-41 21.5q-4 4 -10 12q-4 6 -11 12.5t-18 16.5z" />
<glyph unicode="&#xeb;" horiz-adv-x="1464" d="M227 0v1509h1084v-274h-809v-324h618v-276h-618v-361h809v-274h-1084zM309 1698v157q0 23 17.5 41.5t42.5 18.5h164q25 0 42 -18.5t17 -41.5v-157q0 -23 -18.5 -41.5t-42.5 -18.5h-162q-25 0 -42.5 18.5t-17.5 41.5zM907 1698v157q0 23 18.5 41.5t43.5 18.5h164 q25 0 41 -18.5t16 -41.5v-157q0 -23 -17.5 -41.5t-41.5 -18.5h-162q-25 0 -43.5 18.5t-18.5 41.5z" />
<glyph unicode="&#xec;" horiz-adv-x="731" d="M34 1916q-1 26 17 44l90 90q18 18 45 17t41 -17l256 -303q35 -51 0 -86q-8 -10 -16 -16.5t-12 -12.5q-6 -8 -11 -12q-37 -37 -90 -2l-301 256q-18 16 -19 42zM227 0v1509h277v-1509h-277z" />
<glyph unicode="&#xed;" horiz-adv-x="731" d="M227 0v1509h277v-1509h-277zM274 1661q-35 35 0 86l256 303q14 16 41 17t45 -17l91 -90q18 -18 17 -44t-19 -42l-302 -256q-53 -35 -90 2q-4 4 -10 12q-4 6 -11 12.5t-18 16.5z" />
<glyph unicode="&#xee;" horiz-adv-x="731" d="M47 1663q-33 37 0 86l277 303q16 16 41.5 16t44.5 -16l276 -303q35 -51 0 -86q-8 -10 -16 -16.5t-13 -12.5q-6 -8 -10 -12q-16 -20 -39.5 -22.5t-50.5 20.5l-190 168l-191 -168q-27 -23 -49.5 -20.5t-40.5 22.5q-4 4 -10 12q-4 6 -11.5 12.5t-17.5 16.5zM227 0v1509h277 v-1509h-277z" />
<glyph unicode="&#xef;" horiz-adv-x="731" d="M-76 1698v157q0 23 17.5 41.5t42.5 18.5h163q25 0 42.5 -18.5t17.5 -41.5v-157h2q0 -23 -18.5 -41.5t-43.5 -18.5h-161q-25 0 -43.5 18.5t-18.5 41.5zM227 0v1509h277v-1509h-277zM522 1698v157q0 23 18.5 41.5t43.5 18.5h164q25 0 42 -18.5t17 -41.5v-157 q0 -23 -17.5 -41.5t-41.5 -18.5h-162q-25 0 -44.5 18.5t-19.5 41.5z" />
<glyph unicode="&#xf0;" horiz-adv-x="1482" d="M205 403v297q0 84 31.5 158t87 128t129 86t155.5 32h277q72 0 127 -21v142q0 10 -1 21t-1 24l-125 -70l-80 146l137 75q-8 6 -14 12.5t-17 10.5l-125 65l129 240q74 -33 140.5 -82t120.5 -117l122 70l82 -145l-125 -70q16 -41 24.5 -85t8.5 -91v-826q0 -84 -31.5 -157.5 t-86 -128t-128 -86t-157.5 -31.5h-277q-82 0 -155.5 31.5t-129 86t-87 128t-31.5 157.5zM479 389q0 -47 34 -81t81 -34h303q47 0 81 34t34 81v326q0 47 -34 80.5t-81 33.5h-303q-47 0 -81 -33.5t-34 -80.5v-326z" />
<glyph unicode="&#xf1;" horiz-adv-x="1538" d="M227 0v1509h267l540 -946v946h277v-1509h-262l-547 971v-971h-275zM391 1690v49q0 35 10.5 50t51.5 15h104q6 0 20.5 2t24.5 6l264 109q10 4 24.5 7t24.5 3h158q41 0 51.5 -19.5t10.5 -47.5v-49q0 -35 -10.5 -50.5t-51.5 -15.5h-110q-8 0 -19.5 -2t-21.5 -6l-263 -109 q-8 -4 -21 -6t-24 -4h-161q-41 0 -51.5 16.5t-10.5 51.5z" />
<glyph unicode="&#xf2;" d="M186 403v703q0 84 32 157.5t86 128t128 86t158 31.5h276q84 0 157 -31.5t128 -86t87 -128t32 -157.5v-703q0 -84 -32 -157.5t-87 -128t-128 -86t-157 -31.5h-276q-84 0 -158 31.5t-128 86t-86 128t-32 157.5zM401.5 1916q-2.5 26 16.5 44l90 90q18 18 45 17t41 -17 l256 -303q35 -51 0 -86q-8 -10 -16.5 -16.5t-12.5 -12.5q-6 -8 -10 -12q-35 -39 -90 -2l-301 256q-16 16 -18.5 42zM461 389q0 -47 33.5 -81t80.5 -34h304q47 0 80.5 34t33.5 81v731q0 47 -33.5 81t-80.5 34h-304q-47 0 -80.5 -34t-33.5 -81v-731z" />
<glyph unicode="&#xf3;" d="M186 403v703q0 84 32 157.5t86 128t128 86t158 31.5h276q84 0 157 -31.5t128 -86t87 -128t32 -157.5v-703q0 -84 -32 -157.5t-87 -128t-128 -86t-157 -31.5h-276q-84 0 -158 31.5t-128 86t-86 128t-32 157.5zM461 389q0 -47 33.5 -81t80.5 -34h304q47 0 80.5 34t33.5 81 v731q0 47 -33.5 81t-80.5 34h-304q-47 0 -80.5 -34t-33.5 -81v-731zM666 1661q-35 35 0 86l256 303q14 16 40.5 17t45.5 -17l90 -90q18 -18 17 -44t-19 -42l-301 -256q-53 -35 -90 2q-4 4 -11 12q-4 6 -11 12.5t-17 16.5z" />
<glyph unicode="&#xf4;" d="M186 403v703q0 84 32 157.5t86 128t128 86t158 31.5h276q84 0 157 -31.5t128 -86t87 -128t32 -157.5v-703q0 -84 -32 -157.5t-87 -128t-128 -86t-157 -31.5h-276q-84 0 -158 31.5t-128 86t-86 128t-32 157.5zM408 1661q-35 35 0 86l276 303q16 16 42 16t44 -16l277 -303 q35 -51 0 -86q-8 -10 -16.5 -16.5t-12.5 -12.5q-6 -8 -10 -12q-18 -18 -41 -21.5t-49 19.5l-191 168l-190 -168q-27 -23 -49.5 -19.5t-41.5 21.5q-4 4 -10 12q-4 6 -11 12.5t-17 16.5zM461 389q0 -47 33.5 -81t80.5 -34h304q47 0 80.5 34t33.5 81v731q0 47 -33.5 81 t-80.5 34h-304q-47 0 -80.5 -34t-33.5 -81v-731z" />
<glyph unicode="&#xf5;" d="M186 403v703q0 84 32 157.5t86 128t128 86t158 31.5h276q84 0 157 -31.5t128 -86t87 -128t32 -157.5v-703q0 -84 -32 -157.5t-87 -128t-128 -86t-157 -31.5h-276q-84 0 -158 31.5t-128 86t-86 128t-32 157.5zM406 1690v49q0 35 10 50t51 15h105q6 0 20.5 2t24.5 6 l266 109q10 4 24.5 7t24.5 3h156q41 0 51 -19.5t10 -47.5v-49q0 -35 -10 -50.5t-51 -15.5h-109q-20 0 -41 -8l-262 -109q-10 -4 -23.5 -6t-23.5 -4h-162q-41 0 -51 16.5t-10 51.5zM461 389q0 -47 33.5 -81t80.5 -34h304q47 0 80.5 34t33.5 81v731q0 47 -33.5 81t-80.5 34 h-304q-47 0 -80.5 -34t-33.5 -81v-731z" />
<glyph unicode="&#xf6;" d="M186 403v703q0 84 32 157.5t86 128t128 86t158 31.5h276q84 0 157 -31.5t128 -86t87 -128t32 -157.5v-703q0 -84 -32 -157.5t-87 -128t-128 -86t-157 -31.5h-276q-84 0 -158 31.5t-128 86t-86 128t-32 157.5zM287 1698v157q0 23 17.5 41.5t41.5 18.5h164q25 0 42 -18.5 t17 -41.5v-157q0 -23 -18.5 -41.5t-42.5 -18.5h-162q-25 0 -42 18.5t-17 41.5zM461 389q0 -47 33.5 -81t80.5 -34h304q47 0 80.5 34t33.5 81v731q0 47 -33.5 81t-80.5 34h-304q-47 0 -80.5 -34t-33.5 -81v-731zM885 1698v157q0 23 18.5 41.5t42.5 18.5h164q25 0 41 -18.5 t16 -41.5v-157q0 -23 -17 -41.5t-42 -18.5h-162q-25 0 -43 18.5t-18 41.5z" />
<glyph unicode="&#xf7;" horiz-adv-x="1306" d="M180 618v265h946v-265h-946zM512 279v157q0 23 17.5 41.5t41.5 18.5h164q25 0 42.5 -18.5t17.5 -41.5v-157q0 -23 -18.5 -41.5t-43.5 -18.5h-162q-25 0 -42 18.5t-17 41.5zM512 1063v158q0 23 17.5 41t41.5 18h164q25 0 42.5 -18.5t17.5 -40.5v-158q0 -23 -18.5 -41 t-43.5 -18h-162q-25 0 -42 18t-17 41z" />
<glyph unicode="&#xf8;" d="M186 403v703q0 84 32 157.5t86 128t128 86t158 31.5h276h2l64 170h287q-27 -72 -50 -129q-18 -49 -33.5 -90t-17.5 -41q72 -55 112 -135t40 -178v-703q0 -84 -32 -157.5t-87 -128t-128 -86t-157 -31.5q-74 -2 -133 -2h-93t-42 2l-59 -164h-287l94 246q-72 55 -116 139 t-44 182zM461 389q0 -47 33.5 -81t80.5 -34h304q47 0 80.5 34t33.5 81v731q0 47 -33.5 81t-80.5 34h-304q-47 0 -80.5 -34t-33.5 -81v-731z" />
<glyph unicode="&#xf9;" d="M186 403v1106h275v-1120q0 -47 33.5 -81t80.5 -34h304q47 0 80.5 34t33.5 81v1120h277v-1106q0 -84 -32 -157.5t-87 -128t-128 -86t-157 -31.5h-276q-84 0 -158 31.5t-128 86t-86 128t-32 157.5zM443.5 1916q-1.5 26 17.5 44l90 90q18 18 45 17t41 -17l256 -303 q35 -51 0 -86q-8 -10 -16.5 -16.5t-12.5 -12.5q-6 -8 -10 -12q-37 -37 -90 -2l-301 256q-18 16 -19.5 42z" />
<glyph unicode="&#xfa;" d="M186 403v1106h275v-1120q0 -47 33.5 -81t80.5 -34h304q47 0 80.5 34t33.5 81v1120h277v-1106q0 -84 -32 -157.5t-87 -128t-128 -86t-157 -31.5h-276q-84 0 -158 31.5t-128 86t-86 128t-32 157.5zM598 1661q-35 35 0 86l256 303q14 16 41 17t45 -17l90 -90 q18 -18 17.5 -44t-19.5 -42l-301 -256q-53 -35 -90 2q-4 4 -10 12q-4 6 -11.5 12.5t-17.5 16.5z" />
<glyph unicode="&#xfb;" d="M186 403v1106h275v-1120q0 -47 33.5 -81t80.5 -34h304q47 0 80.5 34t33.5 81v1120h277v-1106q0 -84 -32 -157.5t-87 -128t-128 -86t-157 -31.5h-276q-84 0 -158 31.5t-128 86t-86 128t-32 157.5zM408 1747l276 303q16 16 42 16t44 -16l277 -303q37 -49 2 -86 q-10 -10 -17.5 -16.5t-11.5 -12.5q-6 -8 -10 -12q-18 -18 -42 -21.5t-48 19.5l-191 168l-190 -168q-27 -23 -50.5 -19.5t-39.5 21.5q-4 4 -11 12q-4 6 -11 12.5t-17 16.5q-37 37 -2 86z" />
<glyph unicode="&#xfc;" d="M186 403v1106h275v-1120q0 -47 33.5 -81t80.5 -34h304q47 0 80.5 34t33.5 81v1120h277v-1106q0 -84 -32 -157.5t-87 -128t-128 -86t-157 -31.5h-276q-84 0 -158 31.5t-128 86t-86 128t-32 157.5zM287 1698v157q0 23 17.5 41.5t41.5 18.5h164q25 0 42 -18.5t17 -41.5v-157 q0 -23 -18.5 -41.5t-42.5 -18.5h-162q-25 0 -42 18.5t-17 41.5zM885 1698v157q0 23 18.5 41.5t42.5 18.5h164q25 0 41 -18.5t16 -41.5v-157q0 -23 -17 -41.5t-42 -18.5h-162q-25 0 -43 18.5t-18 41.5z" />
<glyph unicode="&#xfd;" horiz-adv-x="1251" d="M63 1509h299l252 -499l254 499h299l-413 -817v-692h-277v692zM514 1661q-35 35 0 86l256 303q14 16 41 17t45 -17l90 -90q18 -18 17.5 -44t-19.5 -42l-301 -256q-53 -35 -90 2q-4 4 -10 12q-4 6 -11.5 12.5t-17.5 16.5z" />
<glyph unicode="&#xfe;" horiz-adv-x="1392" d="M227 -244v1753h275v-430q31 10 63.5 17.5t65.5 7.5h276q84 0 158 -32t128 -86t86 -128t32 -158v-297q0 -84 -32 -157.5t-86 -128t-128 -86t-158 -31.5h-276q-35 0 -65.5 6t-63.5 19v-269h-275zM502 389q0 -47 33.5 -81t80.5 -34h304q47 0 80.5 34t33.5 81v326 q0 47 -33.5 80.5t-80.5 33.5h-304q-47 0 -80.5 -33.5t-33.5 -80.5v-326z" />
<glyph unicode="&#xff;" horiz-adv-x="1292" d="M84 1509h299l252 -499l254 499h299l-414 -817v-692h-276v692zM195 1698v157q0 23 17 41.5t42 18.5h164q25 0 42 -18.5t17 -41.5v-157h2q0 -23 -18.5 -41.5t-42.5 -18.5h-162q-25 0 -43 18.5t-18 41.5zM793 1698v157q0 23 18 41.5t43 18.5h164q25 0 42 -18.5t17 -41.5 v-157q0 -23 -17.5 -41.5t-41.5 -18.5h-162q-25 0 -44 18.5t-19 41.5z" />
<glyph unicode="&#x152;" horiz-adv-x="2052" d="M186 403v703q0 84 32 157.5t86 128t128 86t158 31.5h1308v-274h-630v-342h440v-277h-440v-342h630v-274h-1308q-84 0 -158 31.5t-128 86t-86 128t-32 157.5zM461 389q0 -47 33.5 -81t80.5 -34h304q47 0 80.5 34t33.5 81v731q0 47 -33.5 81t-80.5 34h-304q-47 0 -80.5 -34 t-33.5 -81v-731z" />
<glyph unicode="&#x153;" horiz-adv-x="2088" d="M186 403v703q0 84 32 157.5t86 128t128 86t158 31.5h260q31 0 67.5 -6t61.5 -24q14 6 43 18t86 12h827v-274h-682v-342h492v-277h-492v-342h682v-274h-825q-41 2 -71.5 12.5t-59.5 20.5q-31 -10 -62.5 -21.5t-66.5 -11.5h-260q-84 0 -158 31.5t-128 86t-86 128t-32 157.5 zM461 389q0 -47 33.5 -81t80.5 -34h289q47 0 81 34t34 81v731q0 47 -34 81t-81 34h-289q-47 0 -80.5 -34t-33.5 -81v-731z" />
<glyph unicode="&#x178;" horiz-adv-x="1290" d="M104 1378v131h265v-84q0 -33 2 -63.5t6 -40.5q6 -12 21.5 -41t36 -65.5t43 -79.5t46.5 -86l121 -220q66 115 119 213q23 43 46.5 85t43.5 80t35.5 68t21.5 46q6 6 8.5 35.5t2.5 64.5v88h264q0 -86 -1 -135t-3 -76.5t-6.5 -40t-12.5 -24.5l-379 -643v-590h-276v590 l-381 643q-8 18 -13 32.5t-7.5 40t-2.5 72.5zM205 1698v157q0 23 17.5 41.5t41.5 18.5h164q25 0 42 -18.5t17 -41.5v-157q0 -23 -18 -41.5t-43 -18.5h-162q-25 0 -42 18.5t-17 41.5zM803 1698v157q0 23 18.5 41.5t42.5 18.5h164q25 0 41 -18.5t16 -41.5v-157 q0 -23 -17 -41.5t-42 -18.5h-162q-25 0 -43 18.5t-18 41.5z" />
<glyph unicode="&#x2c6;" horiz-adv-x="1007" d="M197 1661q-35 35 0 86l276 303q16 16 42 16t44 -16l277 -303q35 -51 0 -86q-8 -10 -16.5 -16.5t-12.5 -12.5q-6 -8 -10 -12q-18 -18 -41 -21.5t-49 19.5l-191 168l-190 -168q-27 -23 -49.5 -19.5t-40.5 21.5q-4 4 -11 12q-4 6 -11 12.5t-17 16.5z" />
<glyph unicode="&#x2dc;" horiz-adv-x="907" d="M82 1690v49q0 35 10 50t51 15h105q6 0 20.5 2t24.5 6l266 109q10 4 24.5 7t24.5 3h156q41 0 51 -19.5t10 -47.5v-49q0 -35 -10 -50.5t-51 -15.5h-109q-20 0 -41 -8l-262 -109q-10 -4 -23.5 -6t-23.5 -4h-162q-41 0 -51 16.5t-10 51.5z" />
<glyph unicode="&#x2000;" horiz-adv-x="1034" />
<glyph unicode="&#x2001;" horiz-adv-x="2069" />
<glyph unicode="&#x2002;" horiz-adv-x="1034" />
<glyph unicode="&#x2003;" horiz-adv-x="2069" />
<glyph unicode="&#x2004;" horiz-adv-x="689" />
<glyph unicode="&#x2005;" horiz-adv-x="517" />
<glyph unicode="&#x2006;" horiz-adv-x="344" />
<glyph unicode="&#x2007;" horiz-adv-x="344" />
<glyph unicode="&#x2008;" horiz-adv-x="258" />
<glyph unicode="&#x2009;" horiz-adv-x="413" />
<glyph unicode="&#x200a;" horiz-adv-x="114" />
<glyph unicode="&#x2010;" horiz-adv-x="1011" d="M145 612v242h721v-242h-721z" />
<glyph unicode="&#x2011;" horiz-adv-x="1011" d="M145 612v242h721v-242h-721z" />
<glyph unicode="&#x2012;" horiz-adv-x="1011" d="M145 612v242h721v-242h-721z" />
<glyph unicode="&#x2013;" horiz-adv-x="1325" d="M164 623v231h997v-231h-997z" />
<glyph unicode="&#x2014;" horiz-adv-x="1435" d="M41 653v201h1354v-201h-1354z" />
<glyph unicode="&#x2018;" horiz-adv-x="835" d="M146 983q-7 27 6 49l282 506q41 53 92 29l37 -19q16 -8 32.5 -15t27.5 -13q47 -27 28 -88l-225 -535q-10 -23 -35.5 -33t-52.5 2l-158 78q-27 12 -34 39z" />
<glyph unicode="&#x2019;" horiz-adv-x="835" d="M141 950q-6 23 2 51l226 535q10 23 36.5 33t51.5 -2l159 -78q25 -12 33 -39t-4 -49l-285 -506q-39 -53 -92 -29l-94 47q-27 14 -33 37z" />
<glyph unicode="&#x201a;" horiz-adv-x="835" d="M143 -63l226 534q10 23 36.5 33t51.5 -2l159 -78q25 -12 33 -39t-4 -49l-285 -504q-39 -55 -92 -31l-37 19q-16 8 -31.5 16t-25.5 14q-47 23 -31 87z" />
<glyph unicode="&#x201c;" horiz-adv-x="1296" d="M146 981q-7 27 6 49l282 506q41 53 92 29l37 -19q16 -8 32.5 -15t27.5 -13q47 -27 28 -88l-225 -535q-10 -23 -35.5 -33t-52.5 2l-158 78q-27 12 -34 39zM606 983q-8 27 6 49l283 506q41 53 92 29l94 -47q49 -27 31 -88l-225 -535q-10 -23 -36 -33t-52 2l-160 78 q-25 12 -33 39z" />
<glyph unicode="&#x201d;" horiz-adv-x="1296" d="M184 1014l226 532q10 23 36.5 33t51.5 -2l159 -76q25 -14 33 -40.5t-4 -49.5l-285 -504q-39 -55 -92 -30l-37 18q-16 8 -31.5 16.5t-25.5 14.5q-47 23 -31 88zM645 1016l225 534q10 23 36 33t52 -4l160 -76q25 -14 33 -40.5t-6 -49.5l-283 -504q-43 -55 -92 -28l-37 18 q-16 8 -31.5 15.5t-25.5 13.5q-49 25 -31 88z" />
<glyph unicode="&#x201e;" horiz-adv-x="1296" d="M143 -57l226 532q10 23 36.5 33t51.5 -2l159 -76q25 -14 33 -41t-4 -49l-285 -504q-39 -55 -92 -31l-37 19q-16 8 -31.5 16t-25.5 15q-47 23 -31 88zM604 -55l225 534q10 23 36 33t53 -4l159 -76q25 -12 33 -39.5t-6 -50.5l-283 -504q-43 -55 -92 -28q-18 8 -37 16 q-16 8 -31.5 16t-25.5 15q-49 25 -31 88z" />
<glyph unicode="&#x2022;" horiz-adv-x="880" d="M227 637v237q0 37 27 64t68 27h237q41 0 67.5 -27t26.5 -64v-237q0 -37 -26.5 -63.5t-67.5 -26.5h-237q-41 0 -68 26.5t-27 63.5z" />
<glyph unicode="&#x2026;" horiz-adv-x="1822" d="M164 82v217q0 35 25.5 58.5t60.5 23.5h217q35 0 60.5 -23.5t25.5 -58.5v-217q0 -35 -25.5 -58.5t-60.5 -23.5h-217q-35 0 -60.5 23.5t-25.5 58.5zM717 82v217q0 35 25.5 58.5t60.5 23.5h217q35 0 60.5 -23.5t25.5 -58.5v-217q0 -35 -25.5 -58.5t-60.5 -23.5h-217 q-35 0 -60.5 23.5t-25.5 58.5zM1270 82v217q0 35 25.5 58.5t60.5 23.5h217q35 0 60.5 -23.5t25.5 -58.5v-217q0 -35 -25.5 -58.5t-60.5 -23.5h-217q-35 0 -60.5 23.5t-25.5 58.5z" />
<glyph unicode="&#x202f;" horiz-adv-x="413" />
<glyph unicode="&#x2039;" horiz-adv-x="815" d="M103.5 751q-1.5 33 21.5 56l379 346q61 43 108 0l19.5 -19.5t17.5 -15.5q8 -8 15 -14q23 -23 26.5 -51.5t-24.5 -61.5l-211 -237l211 -238q29 -33 24.5 -61.5t-26.5 -51.5q-6 -6 -15 -14q-8 -6 -17 -15l-20 -20q-47 -43 -108 0l-379 346q-20 18 -21.5 51z" />
<glyph unicode="&#x203a;" horiz-adv-x="815" d="M125 454.5q-4 28.5 25 61.5l210 238l-210 237q-29 33 -25 61.5t27 51.5l14 14q8 6 17.5 15.5l19.5 19.5q47 43 106 0l381 -346q23 -23 22 -55.5t-22 -51.5l-379 -346q-61 -43 -108 0l-19.5 19.5t-17.5 15.5l-14 14q-23 23 -27 51.5z" />
<glyph unicode="&#x205f;" horiz-adv-x="517" />
<glyph unicode="&#x2122;" horiz-adv-x="1390" d="M84 1378v131h520v-131h-198v-473h-127v473h-195zM709 905v604h125l133 -301l127 301h131v-604h-133v273l-82 -152h-86l-84 152v-273h-131z" />
<glyph unicode="&#xe000;" horiz-adv-x="1505" d="M0 0v1505h1505v-1505h-1505z" />
</font>
</defs>
</svg>
